<?xml version="1.0" encoding="UTF-8" standalone="no"?>
<!DOCTYPE svg PUBLIC "-//W3C//DTD SVG 1.1//EN"
 "http://www.w3.org/Graphics/SVG/1.1/DTD/svg11.dtd">
<!-- Generated by graphviz version 2.43.0 (0)
 -->
<!-- Title: finite_state_machine Pages: 1 -->
<svg width="654pt" height="458pt"
 viewBox="0.00 0.00 654.00 458.00" xmlns="http://www.w3.org/2000/svg" xmlns:xlink="http://www.w3.org/1999/xlink">
<g id="graph0" class="graph" transform="scale(1 1) rotate(0) translate(4 454)">
<title>finite_state_machine</title>
<polygon fill="white" stroke="transparent" points="-4,4 -4,-454 650,-454 650,4 -4,4"/>
<!-- 3 -->
<g id="node1" class="node">
<title>3</title>
<ellipse fill="none" stroke="black" cx="18" cy="-299" rx="18" ry="18"/>
<text text-anchor="middle" x="18" y="-295.3" font-family="Times,serif" font-size="14.00">3</text>
</g>
<!-- 2 -->
<g id="node2" class="node">
<title>2</title>
<ellipse fill="none" stroke="black" cx="100" cy="-206" rx="18" ry="18"/>
<text text-anchor="middle" x="100" y="-202.3" font-family="Times,serif" font-size="14.00">2</text>
</g>
<!-- 3&#45;&gt;2 -->
<g id="edge1" class="edge">
<title>3&#45;&gt;2</title>
<path fill="none" stroke="black" d="M30.57,-286.09C39.72,-275.83 52.78,-261.09 64,-248 69.65,-241.41 75.72,-234.18 81.2,-227.59"/>
<polygon fill="black" stroke="black" points="84.06,-229.63 87.75,-219.7 78.67,-225.16 84.06,-229.63"/>
<text text-anchor="middle" x="59" y="-262.8" font-family="Times,serif" font-size="14.00">9</text>
</g>
<!-- 0 -->
<g id="node3" class="node">
<title>0</title>
<ellipse fill="none" stroke="black" cx="537" cy="-130" rx="18" ry="18"/>
<text text-anchor="middle" x="537" y="-126.3" font-family="Times,serif" font-size="14.00">0</text>
</g>
<!-- 3&#45;&gt;0 -->
<g id="edge2" class="edge">
<title>3&#45;&gt;0</title>
<path fill="none" stroke="black" d="M21.11,-316.78C26.57,-353.64 44.76,-435 99,-435 99,-435 99,-435 456,-435 481.89,-435 488.44,-420.64 501,-398 523.54,-357.34 532.16,-219.04 534.9,-158.63"/>
<polygon fill="black" stroke="black" points="538.41,-158.44 535.35,-148.3 531.42,-158.14 538.41,-158.44"/>
<text text-anchor="middle" x="273" y="-438.8" font-family="Times,serif" font-size="14.00">0</text>
</g>
<!-- 5 -->
<g id="node4" class="node">
<title>5</title>
<ellipse fill="none" stroke="black" cx="628" cy="-57" rx="18" ry="18"/>
<text text-anchor="middle" x="628" y="-53.3" font-family="Times,serif" font-size="14.00">5</text>
</g>
<!-- 3&#45;&gt;5 -->
<g id="edge3" class="edge">
<title>3&#45;&gt;5</title>
<path fill="none" stroke="black" d="M20.58,-281.06C26.25,-222.09 48.05,-38 99,-38 99,-38 99,-38 538,-38 559.46,-38 583.2,-43.35 600.76,-48.37"/>
<polygon fill="black" stroke="black" points="600.23,-51.87 610.82,-51.4 602.25,-45.16 600.23,-51.87"/>
<text text-anchor="middle" x="318.5" y="-41.8" font-family="Times,serif" font-size="14.00">0</text>
</g>
<!-- 7 -->
<g id="node5" class="node">
<title>7</title>
<ellipse fill="none" stroke="black" cx="273" cy="-238" rx="18" ry="18"/>
<text text-anchor="middle" x="273" y="-234.3" font-family="Times,serif" font-size="14.00">7</text>
</g>
<!-- 3&#45;&gt;7 -->
<g id="edge4" class="edge">
<title>3&#45;&gt;7</title>
<path fill="none" stroke="black" d="M35.85,-296.5C69.11,-291.46 145.46,-279.44 209,-266 221.55,-263.35 225.15,-263.91 237,-259 241.05,-257.32 245.19,-255.23 249.13,-253.02"/>
<polygon fill="black" stroke="black" points="251.08,-255.93 257.86,-247.79 247.48,-249.93 251.08,-255.93"/>
<text text-anchor="middle" x="145.5" y="-282.8" font-family="Times,serif" font-size="14.00">0</text>
</g>
<!-- 2&#45;&gt;3 -->
<g id="edge6" class="edge">
<title>2&#45;&gt;3</title>
<path fill="none" stroke="black" d="M82.43,-211.52C73.16,-215.27 61.91,-221.02 54,-229 42.07,-241.04 33.46,-257.96 27.76,-272.15"/>
<polygon fill="black" stroke="black" points="24.34,-271.3 24.12,-281.89 30.9,-273.75 24.34,-271.3"/>
<text text-anchor="middle" x="59" y="-232.8" font-family="Times,serif" font-size="14.00">0</text>
</g>
<!-- 2&#45;&gt;0 -->
<g id="edge8" class="edge">
<title>2&#45;&gt;0</title>
<path fill="none" stroke="black" d="M107.85,-189.55C120.11,-163.09 148.44,-114 190,-114 190,-114 190,-114 456,-114 474.18,-114 494.25,-118.02 509.73,-122.04"/>
<polygon fill="black" stroke="black" points="509.07,-125.48 519.64,-124.76 510.93,-118.73 509.07,-125.48"/>
<text text-anchor="middle" x="318.5" y="-117.8" font-family="Times,serif" font-size="14.00">9</text>
</g>
<!-- 2&#45;&gt;7 -->
<g id="edge9" class="edge">
<title>2&#45;&gt;7</title>
<path fill="none" stroke="black" d="M114.65,-195.31C135.15,-180.63 175.1,-157.27 209,-169 230.73,-176.52 247.71,-196.86 258.54,-213.53"/>
<polygon fill="black" stroke="black" points="255.71,-215.6 263.91,-222.3 261.68,-211.95 255.71,-215.6"/>
<text text-anchor="middle" x="191" y="-172.8" font-family="Times,serif" font-size="14.00">0</text>
</g>
<!-- 6 -->
<g id="node8" class="node">
<title>6</title>
<ellipse fill="none" stroke="black" cx="191" cy="-211" rx="18" ry="18"/>
<text text-anchor="middle" x="191" y="-207.3" font-family="Times,serif" font-size="14.00">6</text>
</g>
<!-- 2&#45;&gt;6 -->
<g id="edge7" class="edge">
<title>2&#45;&gt;6</title>
<path fill="none" stroke="black" d="M118.04,-208.93C123.73,-209.77 130.12,-210.58 136,-211 144.68,-211.62 154.16,-211.79 162.73,-211.75"/>
<polygon fill="black" stroke="black" points="163,-215.25 172.95,-211.62 162.91,-208.25 163,-215.25"/>
<text text-anchor="middle" x="145.5" y="-214.8" font-family="Times,serif" font-size="14.00">0</text>
</g>
<!-- 0&#45;&gt;3 -->
<g id="edge12" class="edge">
<title>0&#45;&gt;3</title>
<path fill="none" stroke="black" d="M534.28,-147.86C528.24,-205.68 505.58,-384 456,-384 99,-384 99,-384 99,-384 65.94,-384 42.52,-349.47 29.89,-324.43"/>
<polygon fill="black" stroke="black" points="33.04,-322.91 25.58,-315.39 26.72,-325.92 33.04,-322.91"/>
<text text-anchor="middle" x="273" y="-387.8" font-family="Times,serif" font-size="14.00">13</text>
</g>
<!-- 0&#45;&gt;2 -->
<g id="edge13" class="edge">
<title>0&#45;&gt;2</title>
<path fill="none" stroke="black" d="M525.12,-116.37C511.03,-100.38 484.82,-76 456,-76 190,-76 190,-76 190,-76 140.75,-76 116.75,-140.32 106.85,-178.48"/>
<polygon fill="black" stroke="black" points="103.38,-177.92 104.42,-188.47 110.18,-179.58 103.38,-177.92"/>
<text text-anchor="middle" x="318.5" y="-79.8" font-family="Times,serif" font-size="14.00">15</text>
</g>
<!-- 0&#45;&gt;5 -->
<g id="edge14" class="edge">
<title>0&#45;&gt;5</title>
<path fill="none" stroke="black" d="M554.88,-125.49C566.24,-121.85 581.08,-115.86 592,-107 600.64,-99.99 608.08,-90.32 613.85,-81.35"/>
<polygon fill="black" stroke="black" points="616.88,-83.11 619.05,-72.74 610.89,-79.49 616.88,-83.11"/>
<text text-anchor="middle" x="582.5" y="-121.8" font-family="Times,serif" font-size="14.00">29</text>
</g>
<!-- 4 -->
<g id="node9" class="node">
<title>4</title>
<ellipse fill="none" stroke="black" cx="455" cy="-175" rx="18" ry="18"/>
<text text-anchor="middle" x="455" y="-171.3" font-family="Times,serif" font-size="14.00">4</text>
</g>
<!-- 0&#45;&gt;4 -->
<g id="edge15" class="edge">
<title>0&#45;&gt;4</title>
<path fill="none" stroke="black" d="M519.67,-135.3C510.9,-138.44 500.06,-142.83 491,-148 486.29,-150.69 481.51,-153.95 477.06,-157.27"/>
<polygon fill="black" stroke="black" points="474.73,-154.65 469.02,-163.57 479.05,-160.16 474.73,-154.65"/>
<text text-anchor="middle" x="496" y="-151.8" font-family="Times,serif" font-size="14.00">7</text>
</g>
<!-- 5&#45;&gt;3 -->
<g id="edge10" class="edge">
<title>5&#45;&gt;3</title>
<path fill="none" stroke="black" d="M615.55,-43.49C599.91,-26.64 570.11,0 538,0 99,0 99,0 99,0 43.3,0 25.35,-196.07 20.54,-270.66"/>
<polygon fill="black" stroke="black" points="17.04,-270.55 19.92,-280.75 24.02,-270.98 17.04,-270.55"/>
<text text-anchor="middle" x="318.5" y="-3.8" font-family="Times,serif" font-size="14.00">7</text>
</g>
<!-- 5&#45;&gt;0 -->
<g id="edge11" class="edge">
<title>5&#45;&gt;0</title>
<path fill="none" stroke="black" d="M611.63,-65.55C600.41,-72.12 585.13,-81.77 573,-92 567.06,-97.01 561.13,-102.98 555.89,-108.69"/>
<polygon fill="black" stroke="black" points="553.25,-106.39 549.23,-116.19 558.48,-111.04 553.25,-106.39"/>
<text text-anchor="middle" x="582.5" y="-95.8" font-family="Times,serif" font-size="14.00">4</text>
</g>
<!-- 7&#45;&gt;3 -->
<g id="edge23" class="edge">
<title>7&#45;&gt;3</title>
<path fill="none" stroke="black" d="M261.31,-251.94C254.96,-259.4 246.33,-268.21 237,-274 225.89,-280.89 221.52,-279.25 209,-283 185.14,-290.15 179.51,-293.56 155,-298 115.05,-305.24 104.56,-304.22 64,-306 59.56,-306.19 58.42,-306.44 54,-306 51.26,-305.73 48.42,-305.34 45.59,-304.89"/>
<polygon fill="black" stroke="black" points="46.11,-301.42 35.63,-303.02 44.82,-308.3 46.11,-301.42"/>
<text text-anchor="middle" x="145.5" y="-304.8" font-family="Times,serif" font-size="14.00">8</text>
</g>
<!-- 7&#45;&gt;2 -->
<g id="edge24" class="edge">
<title>7&#45;&gt;2</title>
<path fill="none" stroke="black" d="M255.37,-242.02C249.59,-243.24 243.04,-244.4 237,-245 191.84,-249.47 177.67,-247.96 136,-230 131.62,-228.11 127.22,-225.64 123.08,-223.01"/>
<polygon fill="black" stroke="black" points="124.79,-219.94 114.57,-217.14 120.81,-225.7 124.79,-219.94"/>
<text text-anchor="middle" x="191" y="-250.8" font-family="Times,serif" font-size="14.00">3</text>
</g>
<!-- 8 -->
<g id="node7" class="node">
<title>8</title>
<ellipse fill="none" stroke="black" cx="364" cy="-217" rx="18" ry="18"/>
<text text-anchor="middle" x="364" y="-213.3" font-family="Times,serif" font-size="14.00">8</text>
</g>
<!-- 7&#45;&gt;8 -->
<g id="edge25" class="edge">
<title>7&#45;&gt;8</title>
<path fill="none" stroke="black" d="M291.1,-234.87C301.76,-232.83 315.73,-230 328,-227 330.88,-226.3 333.87,-225.52 336.85,-224.71"/>
<polygon fill="black" stroke="black" points="338.01,-228.02 346.69,-221.94 336.11,-221.28 338.01,-228.02"/>
<text text-anchor="middle" x="318.5" y="-234.8" font-family="Times,serif" font-size="14.00">3</text>
</g>
<!-- 7&#45;&gt;6 -->
<g id="edge26" class="edge">
<title>7&#45;&gt;6</title>
<path fill="none" stroke="black" d="M255.83,-232.54C245,-228.89 230.48,-223.99 218.04,-219.79"/>
<polygon fill="black" stroke="black" points="218.78,-216.35 208.19,-216.46 216.54,-222.98 218.78,-216.35"/>
<text text-anchor="middle" x="232" y="-229.8" font-family="Times,serif" font-size="14.00">0</text>
</g>
<!-- 1 -->
<g id="node6" class="node">
<title>1</title>
<ellipse fill="none" stroke="black" cx="455" cy="-257" rx="18" ry="18"/>
<text text-anchor="middle" x="455" y="-253.3" font-family="Times,serif" font-size="14.00">1</text>
</g>
<!-- 1&#45;&gt;8 -->
<g id="edge5" class="edge">
<title>1&#45;&gt;8</title>
<path fill="none" stroke="black" d="M438.81,-248.82C432.71,-245.63 425.58,-242.03 419,-239 409.91,-234.82 399.79,-230.59 390.8,-226.97"/>
<polygon fill="black" stroke="black" points="391.81,-223.61 381.23,-223.18 389.23,-230.12 391.81,-223.61"/>
<text text-anchor="middle" x="409.5" y="-242.8" font-family="Times,serif" font-size="14.00">5</text>
</g>
<!-- 8&#45;&gt;7 -->
<g id="edge20" class="edge">
<title>8&#45;&gt;7</title>
<path fill="none" stroke="black" d="M346.54,-212.08C335.64,-209.64 321.16,-207.98 309,-212 303.92,-213.68 298.98,-216.42 294.48,-219.49"/>
<polygon fill="black" stroke="black" points="292.27,-216.78 286.47,-225.65 296.54,-222.33 292.27,-216.78"/>
<text text-anchor="middle" x="318.5" y="-215.8" font-family="Times,serif" font-size="14.00">0</text>
</g>
<!-- 8&#45;&gt;1 -->
<g id="edge18" class="edge">
<title>8&#45;&gt;1</title>
<path fill="none" stroke="black" d="M374.8,-231.93C380.98,-239.99 389.73,-249.24 400,-254 408.11,-257.76 417.67,-259.14 426.46,-259.39"/>
<polygon fill="black" stroke="black" points="426.74,-262.88 436.67,-259.21 426.61,-255.89 426.74,-262.88"/>
<text text-anchor="middle" x="409.5" y="-261.8" font-family="Times,serif" font-size="14.00">10</text>
</g>
<!-- 8&#45;&gt;4 -->
<g id="edge19" class="edge">
<title>8&#45;&gt;4</title>
<path fill="none" stroke="black" d="M380.5,-209.68C393.95,-203.34 413.65,-194.04 429.27,-186.67"/>
<polygon fill="black" stroke="black" points="430.83,-189.81 438.38,-182.37 427.84,-183.48 430.83,-189.81"/>
<text text-anchor="middle" x="409.5" y="-202.8" font-family="Times,serif" font-size="14.00">1</text>
</g>
<!-- 6&#45;&gt;2 -->
<g id="edge21" class="edge">
<title>6&#45;&gt;2</title>
<path fill="none" stroke="black" d="M175.69,-201.13C169.6,-197.51 162.24,-193.84 155,-192 145.35,-189.55 134.74,-191.33 125.5,-194.33"/>
<polygon fill="black" stroke="black" points="124.2,-191.08 116.12,-197.93 126.71,-197.61 124.2,-191.08"/>
<text text-anchor="middle" x="145.5" y="-195.8" font-family="Times,serif" font-size="14.00">18</text>
</g>
<!-- 6&#45;&gt;7 -->
<g id="edge22" class="edge">
<title>6&#45;&gt;7</title>
<path fill="none" stroke="black" d="M206.57,-201.68C215.57,-197.16 227.23,-193.56 237,-198 244.8,-201.54 251.54,-207.77 256.97,-214.27"/>
<polygon fill="black" stroke="black" points="254.33,-216.58 263.13,-222.48 259.93,-212.38 254.33,-216.58"/>
<text text-anchor="middle" x="232" y="-201.8" font-family="Times,serif" font-size="14.00">4</text>
</g>
<!-- 4&#45;&gt;0 -->
<g id="edge16" class="edge">
<title>4&#45;&gt;0</title>
<path fill="none" stroke="black" d="M473,-172.52C481.76,-170.75 492.38,-167.8 501,-163 506.84,-159.75 512.45,-155.3 517.41,-150.72"/>
<polygon fill="black" stroke="black" points="519.96,-153.12 524.59,-143.58 515.03,-148.15 519.96,-153.12"/>
<text text-anchor="middle" x="496" y="-170.8" font-family="Times,serif" font-size="14.00">1</text>
</g>
<!-- 4&#45;&gt;8 -->
<g id="edge17" class="edge">
<title>4&#45;&gt;8</title>
<path fill="none" stroke="black" d="M439.01,-166.33C427.72,-161.02 412.15,-156.4 400,-163 388.84,-169.07 380.69,-180.39 375.08,-191.12"/>
<polygon fill="black" stroke="black" points="371.88,-189.69 370.78,-200.23 378.21,-192.68 371.88,-189.69"/>
<text text-anchor="middle" x="409.5" y="-166.8" font-family="Times,serif" font-size="14.00">1</text>
</g>
</g>
</svg>
