<?xml version="1.0" encoding="UTF-8" standalone="no"?>
<!DOCTYPE svg PUBLIC "-//W3C//DTD SVG 1.1//EN"
 "http://www.w3.org/Graphics/SVG/1.1/DTD/svg11.dtd">
<!-- Generated by graphviz version 2.43.0 (0)
 -->
<!-- Title: finite_state_machine Pages: 1 -->
<svg width="903pt" height="522pt"
 viewBox="0.00 0.00 903.14 521.89" xmlns="http://www.w3.org/2000/svg" xmlns:xlink="http://www.w3.org/1999/xlink">
<g id="graph0" class="graph" transform="scale(1 1) rotate(0) translate(4 517.89)">
<title>finite_state_machine</title>
<polygon fill="white" stroke="transparent" points="-4,4 -4,-517.89 899.14,-517.89 899.14,4 -4,4"/>
<!-- Tokyo -->
<g id="node1" class="node">
<title>Tokyo</title>
<ellipse fill="none" stroke="black" cx="37.7" cy="-407.9" rx="37.89" ry="37.89"/>
<text text-anchor="middle" x="37.7" y="-404.2" font-family="Times,serif" font-size="14.00">Tokyo</text>
</g>
<!-- Seoul -->
<g id="node2" class="node">
<title>Seoul</title>
<ellipse fill="none" stroke="black" cx="191.39" cy="-170.9" rx="36.29" ry="36.29"/>
<text text-anchor="middle" x="191.39" y="-167.2" font-family="Times,serif" font-size="14.00">Seoul</text>
</g>
<!-- Tokyo&#45;&gt;Seoul -->
<g id="edge1" class="edge">
<title>Tokyo&#45;&gt;Seoul</title>
<path fill="none" stroke="black" d="M57.9,-375.64C68.26,-358.41 81.36,-336.89 93.39,-317.9 117,-280.63 144.8,-238.69 164.57,-209.17"/>
<polygon fill="black" stroke="black" points="167.52,-211.06 170.18,-200.81 161.71,-207.16 167.52,-211.06"/>
<text text-anchor="middle" x="113.89" y="-321.7" font-family="Times,serif" font-size="14.00">9/24</text>
</g>
<!-- Oslo -->
<g id="node3" class="node">
<title>Oslo</title>
<ellipse fill="none" stroke="black" cx="645.81" cy="-366.9" rx="31.4" ry="31.4"/>
<text text-anchor="middle" x="645.81" y="-363.2" font-family="Times,serif" font-size="14.00">Oslo</text>
</g>
<!-- Tokyo&#45;&gt;Oslo -->
<g id="edge2" class="edge">
<title>Tokyo&#45;&gt;Oslo</title>
<path fill="none" stroke="black" d="M75.7,-405.39C182.89,-398.14 493.05,-377.16 604.41,-369.63"/>
<polygon fill="black" stroke="black" points="604.81,-373.11 614.55,-368.94 604.34,-366.12 604.81,-373.11"/>
<text text-anchor="middle" x="293.23" y="-396.7" font-family="Times,serif" font-size="14.00">0/13</text>
</g>
<!-- Berlin -->
<g id="node4" class="node">
<title>Berlin</title>
<ellipse fill="none" stroke="black" cx="191.39" cy="-474.9" rx="38.99" ry="38.99"/>
<text text-anchor="middle" x="191.39" y="-471.2" font-family="Times,serif" font-size="14.00">Berlin</text>
</g>
<!-- Tokyo&#45;&gt;Berlin -->
<g id="edge3" class="edge">
<title>Tokyo&#45;&gt;Berlin</title>
<path fill="none" stroke="black" d="M73.89,-418.61C92.26,-424.64 114.9,-432.79 134.39,-441.9 139.31,-444.19 144.36,-446.79 149.32,-449.5"/>
<polygon fill="black" stroke="black" points="147.66,-452.58 158.09,-454.45 151.1,-446.49 147.66,-452.58"/>
<text text-anchor="middle" x="113.89" y="-445.7" font-family="Times,serif" font-size="14.00">0/19</text>
</g>
<!-- Kaunas -->
<g id="node5" class="node">
<title>Kaunas</title>
<ellipse fill="none" stroke="black" cx="293.23" cy="-339.9" rx="44.69" ry="44.69"/>
<text text-anchor="middle" x="293.23" y="-336.2" font-family="Times,serif" font-size="14.00">Kaunas</text>
</g>
<!-- Tokyo&#45;&gt;Kaunas -->
<g id="edge4" class="edge">
<title>Tokyo&#45;&gt;Kaunas</title>
<path fill="none" stroke="black" d="M70.37,-389.09C77.75,-385.29 85.69,-381.62 93.39,-378.9 141.08,-362 197.94,-351.78 238.62,-346.06"/>
<polygon fill="black" stroke="black" points="239.16,-349.52 248.59,-344.71 238.21,-342.59 239.16,-349.52"/>
<text text-anchor="middle" x="113.89" y="-382.7" font-family="Times,serif" font-size="14.00">1/8</text>
</g>
<!-- BourgoinJallieu -->
<g id="node8" class="node">
<title>BourgoinJallieu</title>
<ellipse fill="none" stroke="black" cx="437.97" cy="-170.9" rx="81.79" ry="81.79"/>
<text text-anchor="middle" x="437.97" y="-167.2" font-family="Times,serif" font-size="14.00">BourgoinJallieu</text>
</g>
<!-- Seoul&#45;&gt;BourgoinJallieu -->
<g id="edge6" class="edge">
<title>Seoul&#45;&gt;BourgoinJallieu</title>
<path fill="none" stroke="black" d="M227.95,-170.9C258.8,-170.9 304.81,-170.9 345.81,-170.9"/>
<polygon fill="black" stroke="black" points="345.84,-174.4 355.84,-170.9 345.84,-167.4 345.84,-174.4"/>
<text text-anchor="middle" x="293.23" y="-174.7" font-family="Times,serif" font-size="14.00">3/3</text>
</g>
<!-- Reykjavik -->
<g id="node9" class="node">
<title>Reykjavik</title>
<ellipse fill="none" stroke="black" cx="645.81" cy="-55.9" rx="55.79" ry="55.79"/>
<text text-anchor="middle" x="645.81" y="-52.2" font-family="Times,serif" font-size="14.00">Reykjavik</text>
</g>
<!-- Seoul&#45;&gt;Reykjavik -->
<g id="edge7" class="edge">
<title>Seoul&#45;&gt;Reykjavik</title>
<path fill="none" stroke="black" d="M218.97,-147.02C249.53,-121.25 302.44,-81.66 356.08,-64.9 430.29,-41.7 520.51,-43.3 580.13,-48.17"/>
<polygon fill="black" stroke="black" points="579.89,-51.66 590.16,-49.04 580.5,-44.69 579.89,-51.66"/>
<text text-anchor="middle" x="437.97" y="-68.7" font-family="Times,serif" font-size="14.00">6/6</text>
</g>
<!-- Oslo&#45;&gt;Seoul -->
<g id="edge8" class="edge">
<title>Oslo&#45;&gt;Seoul</title>
<path fill="none" stroke="black" d="M620.97,-347.97C596.89,-329.86 557.91,-303.25 519.86,-288.9 450.84,-262.86 425.74,-286.18 356.08,-261.9 310.33,-245.95 262.39,-217.74 230.3,-196.94"/>
<polygon fill="black" stroke="black" points="231.97,-193.85 221.69,-191.29 228.13,-199.7 231.97,-193.85"/>
<text text-anchor="middle" x="437.97" y="-292.7" font-family="Times,serif" font-size="14.00">0/9</text>
</g>
<!-- Berlin&#45;&gt;Tokyo -->
<g id="edge11" class="edge">
<title>Berlin&#45;&gt;Tokyo</title>
<path fill="none" stroke="black" d="M152.03,-472.62C133.55,-470.33 111.53,-465.81 93.39,-456.9 85.66,-453.09 78.2,-447.89 71.41,-442.28"/>
<polygon fill="black" stroke="black" points="73.59,-439.54 63.77,-435.57 68.98,-444.8 73.59,-439.54"/>
<text text-anchor="middle" x="113.89" y="-472.7" font-family="Times,serif" font-size="14.00">10/14</text>
</g>
<!-- Berlin&#45;&gt;Oslo -->
<g id="edge10" class="edge">
<title>Berlin&#45;&gt;Oslo</title>
<path fill="none" stroke="black" d="M230.6,-474.8C299.05,-473.46 446.15,-465.26 560.86,-421.9 579.39,-414.89 598.02,-403.26 613,-392.49"/>
<polygon fill="black" stroke="black" points="615.42,-395.06 621.38,-386.3 611.26,-389.43 615.42,-395.06"/>
<text text-anchor="middle" x="437.97" y="-469.7" font-family="Times,serif" font-size="14.00">0/7</text>
</g>
<!-- AiguesVives -->
<g id="node7" class="node">
<title>AiguesVives</title>
<ellipse fill="none" stroke="black" cx="645.81" cy="-208.9" rx="66.89" ry="66.89"/>
<text text-anchor="middle" x="645.81" y="-205.2" font-family="Times,serif" font-size="14.00">AiguesVives</text>
</g>
<!-- Kaunas&#45;&gt;AiguesVives -->
<g id="edge9" class="edge">
<title>Kaunas&#45;&gt;AiguesVives</title>
<path fill="none" stroke="black" d="M338.2,-339.72C384.85,-338.17 459.93,-331.71 519.86,-307.9 545.52,-297.7 570.15,-280.42 590.67,-263.12"/>
<polygon fill="black" stroke="black" points="593.04,-265.69 598.32,-256.5 588.46,-260.4 593.04,-265.69"/>
<text text-anchor="middle" x="437.97" y="-341.7" font-family="Times,serif" font-size="14.00">1/2</text>
</g>
<!-- LaHavane -->
<g id="node6" class="node">
<title>LaHavane</title>
<ellipse fill="none" stroke="black" cx="837.95" cy="-208.9" rx="57.39" ry="57.39"/>
<text text-anchor="middle" x="837.95" y="-205.2" font-family="Times,serif" font-size="14.00">LaHavane</text>
</g>
<!-- LaHavane&#45;&gt;AiguesVives -->
<g id="edge5" class="edge">
<title>LaHavane&#45;&gt;AiguesVives</title>
<path fill="none" stroke="black" d="M782.52,-194.13C775.9,-192.8 769.2,-191.67 762.75,-190.9 749.16,-189.27 734.72,-189.74 720.81,-191.31"/>
<polygon fill="black" stroke="black" points="720.24,-187.86 710.79,-192.64 721.16,-194.8 720.24,-187.86"/>
<text text-anchor="middle" x="746.75" y="-194.7" font-family="Times,serif" font-size="14.00">0/5</text>
</g>
<!-- AiguesVives&#45;&gt;LaHavane -->
<g id="edge16" class="edge">
<title>AiguesVives&#45;&gt;LaHavane</title>
<path fill="none" stroke="black" d="M712.78,-208.9C731.42,-208.9 751.71,-208.9 770.39,-208.9"/>
<polygon fill="black" stroke="black" points="770.58,-212.4 780.58,-208.9 770.58,-205.4 770.58,-212.4"/>
<text text-anchor="middle" x="746.75" y="-212.7" font-family="Times,serif" font-size="14.00">0/10</text>
</g>
<!-- AiguesVives&#45;&gt;BourgoinJallieu -->
<g id="edge17" class="edge">
<title>AiguesVives&#45;&gt;BourgoinJallieu</title>
<path fill="none" stroke="black" d="M585.8,-178.48C577.61,-175.36 569.15,-172.68 560.86,-170.9 550.91,-168.75 540.39,-167.41 529.87,-166.65"/>
<polygon fill="black" stroke="black" points="529.98,-163.15 519.8,-166.09 529.59,-170.14 529.98,-163.15"/>
<text text-anchor="middle" x="549.36" y="-174.7" font-family="Times,serif" font-size="14.00">1/1</text>
</g>
<!-- BourgoinJallieu&#45;&gt;Oslo -->
<g id="edge13" class="edge">
<title>BourgoinJallieu&#45;&gt;Oslo</title>
<path fill="none" stroke="black" d="M507.19,-214.9C525.57,-228.26 544.8,-243.72 560.86,-259.9 570.51,-269.61 570.57,-274 578.86,-284.9 591.65,-301.7 606.34,-320.04 618.6,-335.12"/>
<polygon fill="black" stroke="black" points="616.1,-337.59 625.13,-343.12 621.52,-333.16 616.1,-337.59"/>
<text text-anchor="middle" x="549.36" y="-263.7" font-family="Times,serif" font-size="14.00">0/8</text>
</g>
<!-- BourgoinJallieu&#45;&gt;AiguesVives -->
<g id="edge15" class="edge">
<title>BourgoinJallieu&#45;&gt;AiguesVives</title>
<path fill="none" stroke="black" d="M518.55,-185.59C535.32,-188.68 552.97,-191.94 569.57,-195.01"/>
<polygon fill="black" stroke="black" points="569.29,-198.51 579.76,-196.89 570.56,-191.63 569.29,-198.51"/>
<text text-anchor="middle" x="549.36" y="-196.7" font-family="Times,serif" font-size="14.00">0/2</text>
</g>
<!-- BourgoinJallieu&#45;&gt;Reykjavik -->
<g id="edge14" class="edge">
<title>BourgoinJallieu&#45;&gt;Reykjavik</title>
<path fill="none" stroke="black" d="M509.81,-131.32C535.18,-117.15 563.43,-101.36 587.51,-87.91"/>
<polygon fill="black" stroke="black" points="589.5,-90.81 596.52,-82.87 586.08,-84.7 589.5,-90.81"/>
<text text-anchor="middle" x="549.36" y="-116.7" font-family="Times,serif" font-size="14.00">4/4</text>
</g>
<!-- Reykjavik&#45;&gt;Seoul -->
<g id="edge12" class="edge">
<title>Reykjavik&#45;&gt;Seoul</title>
<path fill="none" stroke="black" d="M592.11,-40.33C570.01,-34.56 543.9,-28.74 519.86,-25.9 447.58,-17.34 427.67,-12.73 356.08,-25.9 305.71,-35.16 286.88,-33.11 248.39,-66.9 230.08,-82.97 216.7,-106.52 207.62,-127.15"/>
<polygon fill="black" stroke="black" points="204.39,-125.81 203.75,-136.38 210.85,-128.51 204.39,-125.81"/>
<text text-anchor="middle" x="437.97" y="-29.7" font-family="Times,serif" font-size="14.00">0/12</text>
</g>
</g>
</svg>
