<?xml version="1.0" encoding="UTF-8" standalone="no"?>
<!DOCTYPE svg PUBLIC "-//W3C//DTD SVG 1.1//EN"
 "http://www.w3.org/Graphics/SVG/1.1/DTD/svg11.dtd">
<!-- Generated by graphviz version 2.43.0 (0)
 -->
<!-- Title: finite_state_machine Pages: 1 -->
<svg width="645pt" height="242pt"
 viewBox="0.00 0.00 645.00 242.00" xmlns="http://www.w3.org/2000/svg" xmlns:xlink="http://www.w3.org/1999/xlink">
<g id="graph0" class="graph" transform="scale(1 1) rotate(0) translate(4 238)">
<title>finite_state_machine</title>
<polygon fill="white" stroke="transparent" points="-4,4 -4,-238 641,-238 641,4 -4,4"/>
<!-- 8 -->
<g id="node1" class="node">
<title>8</title>
<ellipse fill="none" stroke="black" cx="273" cy="-155" rx="18" ry="18"/>
<text text-anchor="middle" x="273" y="-151.3" font-family="Times,serif" font-size="14.00">8</text>
</g>
<!-- 7 -->
<g id="node2" class="node">
<title>7</title>
<ellipse fill="none" stroke="black" cx="364" cy="-147" rx="18" ry="18"/>
<text text-anchor="middle" x="364" y="-143.3" font-family="Times,serif" font-size="14.00">7</text>
</g>
<!-- 8&#45;&gt;7 -->
<g id="edge1" class="edge">
<title>8&#45;&gt;7</title>
<path fill="none" stroke="black" d="M291.16,-153.46C303.84,-152.32 321.36,-150.74 335.92,-149.43"/>
<polygon fill="black" stroke="black" points="336.25,-152.92 345.89,-148.54 335.62,-145.95 336.25,-152.92"/>
<text text-anchor="middle" x="318.5" y="-154.8" font-family="Times,serif" font-size="14.00">1</text>
</g>
<!-- 1 -->
<g id="node3" class="node">
<title>1</title>
<ellipse fill="none" stroke="black" cx="364" cy="-216" rx="18" ry="18"/>
<text text-anchor="middle" x="364" y="-212.3" font-family="Times,serif" font-size="14.00">1</text>
</g>
<!-- 8&#45;&gt;1 -->
<g id="edge2" class="edge">
<title>8&#45;&gt;1</title>
<path fill="none" stroke="black" d="M288.3,-164.8C302.31,-174.41 323.89,-189.2 340.26,-200.41"/>
<polygon fill="black" stroke="black" points="338.51,-203.46 348.74,-206.22 342.47,-197.68 338.51,-203.46"/>
<text text-anchor="middle" x="318.5" y="-193.8" font-family="Times,serif" font-size="14.00">10</text>
</g>
<!-- 7&#45;&gt;8 -->
<g id="edge3" class="edge">
<title>7&#45;&gt;8</title>
<path fill="none" stroke="black" d="M348.3,-137.86C337.43,-132.26 322.26,-126.89 309,-131 304.24,-132.48 299.55,-134.85 295.22,-137.54"/>
<polygon fill="black" stroke="black" points="293.14,-134.73 286.95,-143.33 297.15,-140.46 293.14,-134.73"/>
<text text-anchor="middle" x="318.5" y="-134.8" font-family="Times,serif" font-size="14.00">2</text>
</g>
<!-- 6 -->
<g id="node4" class="node">
<title>6</title>
<ellipse fill="none" stroke="black" cx="619" cy="-151" rx="18" ry="18"/>
<text text-anchor="middle" x="619" y="-147.3" font-family="Times,serif" font-size="14.00">6</text>
</g>
<!-- 7&#45;&gt;6 -->
<g id="edge4" class="edge">
<title>7&#45;&gt;6</title>
<path fill="none" stroke="black" d="M382.04,-149.87C387.74,-150.71 394.13,-151.53 400,-152 472.67,-157.83 491.1,-154.33 564,-155 572.44,-155.08 574.57,-155.48 583,-155 585.56,-154.85 588.23,-154.65 590.89,-154.41"/>
<polygon fill="black" stroke="black" points="591.37,-157.88 600.94,-153.34 590.63,-150.91 591.37,-157.88"/>
<text text-anchor="middle" x="487" y="-158.8" font-family="Times,serif" font-size="14.00">4</text>
</g>
<!-- 3 -->
<g id="node5" class="node">
<title>3</title>
<ellipse fill="none" stroke="black" cx="446" cy="-88" rx="18" ry="18"/>
<text text-anchor="middle" x="446" y="-84.3" font-family="Times,serif" font-size="14.00">3</text>
</g>
<!-- 7&#45;&gt;3 -->
<g id="edge5" class="edge">
<title>7&#45;&gt;3</title>
<path fill="none" stroke="black" d="M378.04,-135.65C384.51,-130.16 392.53,-123.56 400,-118 406.88,-112.87 414.59,-107.58 421.65,-102.9"/>
<polygon fill="black" stroke="black" points="423.69,-105.75 430.14,-97.35 419.86,-99.89 423.69,-105.75"/>
<text text-anchor="middle" x="405" y="-121.8" font-family="Times,serif" font-size="14.00">8</text>
</g>
<!-- 1&#45;&gt;8 -->
<g id="edge13" class="edge">
<title>1&#45;&gt;8</title>
<path fill="none" stroke="black" d="M345.7,-217.35C334.44,-217.4 319.88,-215.85 309,-209 298.43,-202.34 290.42,-191.2 284.75,-180.77"/>
<polygon fill="black" stroke="black" points="287.75,-178.94 280.19,-171.53 281.48,-182.04 287.75,-178.94"/>
<text text-anchor="middle" x="318.5" y="-218.8" font-family="Times,serif" font-size="14.00">5</text>
</g>
<!-- 2 -->
<g id="node6" class="node">
<title>2</title>
<ellipse fill="none" stroke="black" cx="528" cy="-113" rx="18" ry="18"/>
<text text-anchor="middle" x="528" y="-109.3" font-family="Times,serif" font-size="14.00">2</text>
</g>
<!-- 6&#45;&gt;2 -->
<g id="edge6" class="edge">
<title>6&#45;&gt;2</title>
<path fill="none" stroke="black" d="M608.55,-136.31C602.38,-128.11 593.52,-118.64 583,-114 574.62,-110.3 564.76,-109.28 555.78,-109.43"/>
<polygon fill="black" stroke="black" points="555.54,-105.94 545.78,-110.06 555.98,-112.92 555.54,-105.94"/>
<text text-anchor="middle" x="573.5" y="-117.8" font-family="Times,serif" font-size="14.00">12</text>
</g>
<!-- 3&#45;&gt;2 -->
<g id="edge10" class="edge">
<title>3&#45;&gt;2</title>
<path fill="none" stroke="black" d="M463.58,-93.18C474.37,-96.55 488.69,-101.03 500.99,-104.87"/>
<polygon fill="black" stroke="black" points="500.13,-108.27 510.72,-107.91 502.22,-101.59 500.13,-108.27"/>
<text text-anchor="middle" x="487" y="-104.8" font-family="Times,serif" font-size="14.00">9</text>
</g>
<!-- 2&#45;&gt;7 -->
<g id="edge12" class="edge">
<title>2&#45;&gt;7</title>
<path fill="none" stroke="black" d="M510.12,-116.54C482.01,-122.44 425.36,-134.33 391.76,-141.38"/>
<polygon fill="black" stroke="black" points="390.79,-138.01 381.73,-143.49 392.23,-144.86 390.79,-138.01"/>
<text text-anchor="middle" x="446" y="-136.8" font-family="Times,serif" font-size="14.00">3</text>
</g>
<!-- 2&#45;&gt;6 -->
<g id="edge11" class="edge">
<title>2&#45;&gt;6</title>
<path fill="none" stroke="black" d="M544.62,-120.31C550.65,-123.09 557.62,-126.24 564,-129 573.18,-132.97 583.32,-137.15 592.31,-140.79"/>
<polygon fill="black" stroke="black" points="591.28,-144.15 601.86,-144.63 593.89,-137.65 591.28,-144.15"/>
<text text-anchor="middle" x="573.5" y="-139.8" font-family="Times,serif" font-size="14.00">6</text>
</g>
<!-- 5 -->
<g id="node7" class="node">
<title>5</title>
<ellipse fill="none" stroke="black" cx="18" cy="-39" rx="18" ry="18"/>
<text text-anchor="middle" x="18" y="-35.3" font-family="Times,serif" font-size="14.00">5</text>
</g>
<!-- 5&#45;&gt;3 -->
<g id="edge8" class="edge">
<title>5&#45;&gt;3</title>
<path fill="none" stroke="black" d="M32.97,-28.55C49.84,-17 79.49,0 108,0 108,0 108,0 365,0 398.87,0 422.18,-36.13 434.56,-62.09"/>
<polygon fill="black" stroke="black" points="431.47,-63.76 438.77,-71.45 437.86,-60.89 431.47,-63.76"/>
<text text-anchor="middle" x="232" y="-3.8" font-family="Times,serif" font-size="14.00">7</text>
</g>
<!-- 0 -->
<g id="node8" class="node">
<title>0</title>
<ellipse fill="none" stroke="black" cx="109" cy="-77" rx="18" ry="18"/>
<text text-anchor="middle" x="109" y="-73.3" font-family="Times,serif" font-size="14.00">0</text>
</g>
<!-- 5&#45;&gt;0 -->
<g id="edge7" class="edge">
<title>5&#45;&gt;0</title>
<path fill="none" stroke="black" d="M34.62,-46.31C40.65,-49.09 47.62,-52.24 54,-55 63.18,-58.97 73.32,-63.15 82.31,-66.79"/>
<polygon fill="black" stroke="black" points="81.28,-70.15 91.86,-70.63 83.89,-63.65 81.28,-70.15"/>
<text text-anchor="middle" x="63.5" y="-65.8" font-family="Times,serif" font-size="14.00">14</text>
</g>
<!-- 0&#45;&gt;3 -->
<g id="edge16" class="edge">
<title>0&#45;&gt;3</title>
<path fill="none" stroke="black" d="M127.13,-79.37C143.3,-81.4 168.25,-84 190,-84 190,-84 190,-84 365,-84 382.46,-84 402.03,-84.96 417.45,-85.94"/>
<polygon fill="black" stroke="black" points="417.63,-89.46 427.85,-86.65 418.11,-82.48 417.63,-89.46"/>
<text text-anchor="middle" x="273" y="-87.8" font-family="Times,serif" font-size="14.00">13</text>
</g>
<!-- 0&#45;&gt;2 -->
<g id="edge17" class="edge">
<title>0&#45;&gt;2</title>
<path fill="none" stroke="black" d="M123.2,-65.93C138.33,-54.4 164.35,-38 190,-38 190,-38 190,-38 447,-38 476.98,-38 500.36,-66.39 513.9,-88.23"/>
<polygon fill="black" stroke="black" points="511.02,-90.24 519.09,-97.09 517.06,-86.7 511.02,-90.24"/>
<text text-anchor="middle" x="318.5" y="-41.8" font-family="Times,serif" font-size="14.00">24</text>
</g>
<!-- 0&#45;&gt;5 -->
<g id="edge15" class="edge">
<title>0&#45;&gt;5</title>
<path fill="none" stroke="black" d="M99.49,-61.52C93.44,-52.24 84.39,-41.25 73,-36 64.67,-32.16 54.82,-31.69 45.84,-32.57"/>
<polygon fill="black" stroke="black" points="45.18,-29.13 35.83,-34.12 46.24,-36.05 45.18,-29.13"/>
<text text-anchor="middle" x="63.5" y="-39.8" font-family="Times,serif" font-size="14.00">19</text>
</g>
<!-- 4 -->
<g id="node9" class="node">
<title>4</title>
<ellipse fill="none" stroke="black" cx="191" cy="-142" rx="18" ry="18"/>
<text text-anchor="middle" x="191" y="-138.3" font-family="Times,serif" font-size="14.00">4</text>
</g>
<!-- 0&#45;&gt;4 -->
<g id="edge14" class="edge">
<title>0&#45;&gt;4</title>
<path fill="none" stroke="black" d="M123.57,-88.03C135.94,-98.08 154.42,-113.09 168.75,-124.73"/>
<polygon fill="black" stroke="black" points="166.66,-127.55 176.63,-131.14 171.08,-122.11 166.66,-127.55"/>
<text text-anchor="middle" x="150" y="-116.8" font-family="Times,serif" font-size="14.00">8</text>
</g>
<!-- 4&#45;&gt;8 -->
<g id="edge9" class="edge">
<title>4&#45;&gt;8</title>
<path fill="none" stroke="black" d="M208.97,-144.76C219.47,-146.46 233.18,-148.69 245.13,-150.63"/>
<polygon fill="black" stroke="black" points="244.63,-154.1 255.06,-152.25 245.75,-147.19 244.63,-154.1"/>
<text text-anchor="middle" x="232" y="-152.8" font-family="Times,serif" font-size="14.00">2</text>
</g>
</g>
</svg>
