<?xml version="1.0" encoding="UTF-8" standalone="no"?>
<!DOCTYPE svg PUBLIC "-//W3C//DTD SVG 1.1//EN"
 "http://www.w3.org/Graphics/SVG/1.1/DTD/svg11.dtd">
<!-- Generated by graphviz version 2.43.0 (0)
 -->
<!-- Title: finite_state_machine Pages: 1 -->
<svg width="736pt" height="471pt"
 viewBox="0.00 0.00 736.00 471.00" xmlns="http://www.w3.org/2000/svg" xmlns:xlink="http://www.w3.org/1999/xlink">
<g id="graph0" class="graph" transform="scale(1 1) rotate(0) translate(4 467)">
<title>finite_state_machine</title>
<polygon fill="white" stroke="transparent" points="-4,4 -4,-467 732,-467 732,4 -4,4"/>
<!-- 5 -->
<g id="node1" class="node">
<title>5</title>
<ellipse fill="none" stroke="black" cx="18" cy="-339" rx="18" ry="18"/>
<text text-anchor="middle" x="18" y="-335.3" font-family="Times,serif" font-size="14.00">5</text>
</g>
<!-- 3 -->
<g id="node2" class="node">
<title>3</title>
<ellipse fill="none" stroke="black" cx="100" cy="-273" rx="18" ry="18"/>
<text text-anchor="middle" x="100" y="-269.3" font-family="Times,serif" font-size="14.00">3</text>
</g>
<!-- 5&#45;&gt;3 -->
<g id="edge1" class="edge">
<title>5&#45;&gt;3</title>
<path fill="none" stroke="black" d="M32.57,-327.8C44.94,-317.6 63.42,-302.35 77.75,-290.53"/>
<polygon fill="black" stroke="black" points="80.14,-293.09 85.63,-284.03 75.69,-287.69 80.14,-293.09"/>
<text text-anchor="middle" x="59" y="-312.8" font-family="Times,serif" font-size="14.00">7</text>
</g>
<!-- 0 -->
<g id="node3" class="node">
<title>0</title>
<ellipse fill="none" stroke="black" cx="455" cy="-296" rx="18" ry="18"/>
<text text-anchor="middle" x="455" y="-292.3" font-family="Times,serif" font-size="14.00">0</text>
</g>
<!-- 5&#45;&gt;0 -->
<g id="edge2" class="edge">
<title>5&#45;&gt;0</title>
<path fill="none" stroke="black" d="M23.18,-356.51C31.7,-387.32 54.17,-448 99,-448 99,-448 99,-448 365,-448 421.78,-448 443.02,-368.03 450.4,-324.1"/>
<polygon fill="black" stroke="black" points="453.88,-324.45 451.95,-314.03 446.97,-323.38 453.88,-324.45"/>
<text text-anchor="middle" x="227.5" y="-451.8" font-family="Times,serif" font-size="14.00">14</text>
</g>
<!-- 3&#45;&gt;5 -->
<g id="edge15" class="edge">
<title>3&#45;&gt;5</title>
<path fill="none" stroke="black" d="M81.91,-273.66C72.91,-274.75 62.1,-277.27 54,-283 43.43,-290.47 35.37,-302.25 29.67,-313.08"/>
<polygon fill="black" stroke="black" points="26.45,-311.69 25.26,-322.22 32.76,-314.73 26.45,-311.69"/>
<text text-anchor="middle" x="59" y="-286.8" font-family="Times,serif" font-size="14.00">0</text>
</g>
<!-- 3&#45;&gt;0 -->
<g id="edge14" class="edge">
<title>3&#45;&gt;0</title>
<path fill="none" stroke="black" d="M103.38,-290.8C109.29,-326.83 128.21,-405 181,-405 181,-405 181,-405 365,-405 392.9,-405 400.37,-393.77 419,-373 431.79,-358.74 440.63,-339.03 446.23,-323.11"/>
<polygon fill="black" stroke="black" points="449.66,-323.89 449.45,-313.3 443.01,-321.71 449.66,-323.89"/>
<text text-anchor="middle" x="273" y="-408.8" font-family="Times,serif" font-size="14.00">0</text>
</g>
<!-- 2 -->
<g id="node6" class="node">
<title>2</title>
<ellipse fill="none" stroke="black" cx="364" cy="-210" rx="18" ry="18"/>
<text text-anchor="middle" x="364" y="-206.3" font-family="Times,serif" font-size="14.00">2</text>
</g>
<!-- 3&#45;&gt;2 -->
<g id="edge13" class="edge">
<title>3&#45;&gt;2</title>
<path fill="none" stroke="black" d="M118.02,-271.59C156.49,-267.99 252.65,-256.73 328,-229 331.83,-227.59 335.76,-225.82 339.53,-223.93"/>
<polygon fill="black" stroke="black" points="341.31,-226.95 348.46,-219.12 337.99,-220.78 341.31,-226.95"/>
<text text-anchor="middle" x="227.5" y="-261.8" font-family="Times,serif" font-size="14.00">9</text>
</g>
<!-- 7 -->
<g id="node7" class="node">
<title>7</title>
<ellipse fill="none" stroke="black" cx="182" cy="-124" rx="18" ry="18"/>
<text text-anchor="middle" x="182" y="-120.3" font-family="Times,serif" font-size="14.00">7</text>
</g>
<!-- 3&#45;&gt;7 -->
<g id="edge16" class="edge">
<title>3&#45;&gt;7</title>
<path fill="none" stroke="black" d="M108.68,-257.03C115.61,-242.76 126.2,-221.34 136,-203 145.92,-184.44 157.71,-163.78 166.74,-148.25"/>
<polygon fill="black" stroke="black" points="169.94,-149.7 171.96,-139.3 163.89,-146.18 169.94,-149.7"/>
<text text-anchor="middle" x="141" y="-206.8" font-family="Times,serif" font-size="14.00">0</text>
</g>
<!-- 0&#45;&gt;5 -->
<g id="edge8" class="edge">
<title>0&#45;&gt;5</title>
<path fill="none" stroke="black" d="M443.63,-309.98C428.56,-328.54 398.7,-359 365,-359 99,-359 99,-359 99,-359 80.51,-359 60.3,-353.91 44.83,-348.86"/>
<polygon fill="black" stroke="black" points="45.54,-345.4 34.95,-345.44 43.25,-352.02 45.54,-345.4"/>
<text text-anchor="middle" x="227.5" y="-362.8" font-family="Times,serif" font-size="14.00">19</text>
</g>
<!-- 0&#45;&gt;3 -->
<g id="edge6" class="edge">
<title>0&#45;&gt;3</title>
<path fill="none" stroke="black" d="M437.84,-301.89C420.19,-307.79 390.97,-316 365,-316 181,-316 181,-316 181,-316 158.99,-316 137.19,-303.21 121.92,-291.58"/>
<polygon fill="black" stroke="black" points="123.72,-288.53 113.74,-284.98 119.32,-293.98 123.72,-288.53"/>
<text text-anchor="middle" x="273" y="-319.8" font-family="Times,serif" font-size="14.00">13</text>
</g>
<!-- 4 -->
<g id="node4" class="node">
<title>4</title>
<ellipse fill="none" stroke="black" cx="537" cy="-221" rx="18" ry="18"/>
<text text-anchor="middle" x="537" y="-217.3" font-family="Times,serif" font-size="14.00">4</text>
</g>
<!-- 0&#45;&gt;4 -->
<g id="edge5" class="edge">
<title>0&#45;&gt;4</title>
<path fill="none" stroke="black" d="M468.85,-283.95C481.45,-272.14 500.85,-253.96 515.56,-240.16"/>
<polygon fill="black" stroke="black" points="518.28,-242.41 523.18,-233.02 513.49,-237.31 518.28,-242.41"/>
<text text-anchor="middle" x="496" y="-266.8" font-family="Times,serif" font-size="14.00">8</text>
</g>
<!-- 0&#45;&gt;2 -->
<g id="edge7" class="edge">
<title>0&#45;&gt;2</title>
<path fill="none" stroke="black" d="M446.87,-279.66C440.85,-267.31 431.25,-250.56 419,-239 410.76,-231.22 400.03,-224.9 390.31,-220.16"/>
<polygon fill="black" stroke="black" points="391.6,-216.91 381.05,-215.96 388.71,-223.28 391.6,-216.91"/>
<text text-anchor="middle" x="409.5" y="-242.8" font-family="Times,serif" font-size="14.00">24</text>
</g>
<!-- 4&#45;&gt;0 -->
<g id="edge4" class="edge">
<title>4&#45;&gt;0</title>
<path fill="none" stroke="black" d="M518.75,-222.36C509.71,-223.83 498.91,-226.84 491,-233 479.05,-242.32 470.57,-256.92 464.96,-269.72"/>
<polygon fill="black" stroke="black" points="461.69,-268.46 461.21,-279.04 468.19,-271.07 461.69,-268.46"/>
<text text-anchor="middle" x="496" y="-236.8" font-family="Times,serif" font-size="14.00">0</text>
</g>
<!-- 8 -->
<g id="node5" class="node">
<title>8</title>
<ellipse fill="none" stroke="black" cx="619" cy="-94" rx="18" ry="18"/>
<text text-anchor="middle" x="619" y="-90.3" font-family="Times,serif" font-size="14.00">8</text>
</g>
<!-- 4&#45;&gt;8 -->
<g id="edge3" class="edge">
<title>4&#45;&gt;8</title>
<path fill="none" stroke="black" d="M548.97,-207.36C558.48,-195.26 572.35,-176.93 583,-160 591.31,-146.79 599.54,-131.42 605.93,-118.83"/>
<polygon fill="black" stroke="black" points="609.09,-120.34 610.43,-109.84 602.83,-117.21 609.09,-120.34"/>
<text text-anchor="middle" x="578" y="-177.8" font-family="Times,serif" font-size="14.00">2</text>
</g>
<!-- 8&#45;&gt;4 -->
<g id="edge20" class="edge">
<title>8&#45;&gt;4</title>
<path fill="none" stroke="black" d="M604.88,-105.34C595.13,-114.29 582.02,-127.47 573,-141 561.93,-157.61 552.99,-178.3 546.91,-194.47"/>
<polygon fill="black" stroke="black" points="543.62,-193.29 543.51,-203.89 550.2,-195.67 543.62,-193.29"/>
<text text-anchor="middle" x="578" y="-144.8" font-family="Times,serif" font-size="14.00">0</text>
</g>
<!-- 8&#45;&gt;7 -->
<g id="edge21" class="edge">
<title>8&#45;&gt;7</title>
<path fill="none" stroke="black" d="M612.82,-76.95C607.43,-61.57 597.69,-39.09 583,-24 567.18,-7.76 560.67,0 538,0 272,0 272,0 272,0 245.74,0 235.8,-4.69 218,-24 199.68,-43.88 190.86,-73.89 186.67,-95.84"/>
<polygon fill="black" stroke="black" points="183.19,-95.45 184.96,-105.9 190.09,-96.62 183.19,-95.45"/>
<text text-anchor="middle" x="409.5" y="-3.8" font-family="Times,serif" font-size="14.00">1</text>
</g>
<!-- 1 -->
<g id="node9" class="node">
<title>1</title>
<ellipse fill="none" stroke="black" cx="710" cy="-94" rx="18" ry="18"/>
<text text-anchor="middle" x="710" y="-90.3" font-family="Times,serif" font-size="14.00">1</text>
</g>
<!-- 8&#45;&gt;1 -->
<g id="edge19" class="edge">
<title>8&#45;&gt;1</title>
<path fill="none" stroke="black" d="M637.16,-94C649.72,-94 667.02,-94 681.5,-94"/>
<polygon fill="black" stroke="black" points="681.89,-97.5 691.89,-94 681.89,-90.5 681.89,-97.5"/>
<text text-anchor="middle" x="664.5" y="-97.8" font-family="Times,serif" font-size="14.00">10</text>
</g>
<!-- 2&#45;&gt;3 -->
<g id="edge11" class="edge">
<title>2&#45;&gt;3</title>
<path fill="none" stroke="black" d="M345.96,-211.54C307.44,-215.44 211.19,-227.46 136,-256 132.61,-257.29 129.11,-258.78 125.69,-260.34"/>
<polygon fill="black" stroke="black" points="123.93,-257.3 116.42,-264.77 126.95,-263.61 123.93,-257.3"/>
<text text-anchor="middle" x="227.5" y="-236.8" font-family="Times,serif" font-size="14.00">0</text>
</g>
<!-- 2&#45;&gt;0 -->
<g id="edge10" class="edge">
<title>2&#45;&gt;0</title>
<path fill="none" stroke="black" d="M375.23,-224.59C381.82,-233.52 390.84,-244.94 400,-254 409.54,-263.43 421.17,-272.71 431.19,-280.14"/>
<polygon fill="black" stroke="black" points="429.33,-283.12 439.49,-286.15 433.44,-277.45 429.33,-283.12"/>
<text text-anchor="middle" x="409.5" y="-274.8" font-family="Times,serif" font-size="14.00">0</text>
</g>
<!-- 2&#45;&gt;7 -->
<g id="edge9" class="edge">
<title>2&#45;&gt;7</title>
<path fill="none" stroke="black" d="M351.34,-196.96C344.82,-190.04 336.35,-181.62 328,-175 312.83,-162.96 308.8,-159.63 291,-152 264.53,-140.66 232.38,-133.04 210.07,-128.66"/>
<polygon fill="black" stroke="black" points="210.46,-125.17 199.98,-126.76 209.16,-132.05 210.46,-125.17"/>
<text text-anchor="middle" x="273" y="-155.8" font-family="Times,serif" font-size="14.00">3</text>
</g>
<!-- 6 -->
<g id="node8" class="node">
<title>6</title>
<ellipse fill="none" stroke="black" cx="273" cy="-84" rx="18" ry="18"/>
<text text-anchor="middle" x="273" y="-80.3" font-family="Times,serif" font-size="14.00">6</text>
</g>
<!-- 2&#45;&gt;6 -->
<g id="edge12" class="edge">
<title>2&#45;&gt;6</title>
<path fill="none" stroke="black" d="M361.14,-191.97C357.21,-158.01 346.87,-86.68 328,-72 319.5,-65.39 308.08,-66.87 297.94,-70.63"/>
<polygon fill="black" stroke="black" points="296.44,-67.46 288.73,-74.73 299.29,-73.85 296.44,-67.46"/>
<text text-anchor="middle" x="318.5" y="-75.8" font-family="Times,serif" font-size="14.00">6</text>
</g>
<!-- 7&#45;&gt;3 -->
<g id="edge24" class="edge">
<title>7&#45;&gt;3</title>
<path fill="none" stroke="black" d="M167.05,-134.27C157.15,-142.22 144.2,-154.03 136,-167 120.63,-191.33 111.31,-223.09 106.2,-245.49"/>
<polygon fill="black" stroke="black" points="102.76,-244.84 104.08,-255.35 109.6,-246.31 102.76,-244.84"/>
<text text-anchor="middle" x="141" y="-170.8" font-family="Times,serif" font-size="14.00">8</text>
</g>
<!-- 7&#45;&gt;8 -->
<g id="edge26" class="edge">
<title>7&#45;&gt;8</title>
<path fill="none" stroke="black" d="M189.66,-107.51C195.55,-94.61 205.18,-76.93 218,-65 237.64,-46.72 245.17,-38 272,-38 272,-38 272,-38 538,-38 562.98,-38 585.7,-56.55 600.49,-72.29"/>
<polygon fill="black" stroke="black" points="598.22,-75 607.47,-80.16 603.45,-70.36 598.22,-75"/>
<text text-anchor="middle" x="409.5" y="-41.8" font-family="Times,serif" font-size="14.00">2</text>
</g>
<!-- 7&#45;&gt;2 -->
<g id="edge25" class="edge">
<title>7&#45;&gt;2</title>
<path fill="none" stroke="black" d="M197.47,-133.91C203.71,-138.08 211.13,-142.9 218,-147 234.05,-156.59 238.07,-159.08 255,-167 282.46,-179.84 314.88,-192.41 336.98,-200.62"/>
<polygon fill="black" stroke="black" points="336.05,-204 346.65,-204.17 338.47,-197.43 336.05,-204"/>
<text text-anchor="middle" x="273" y="-186.8" font-family="Times,serif" font-size="14.00">0</text>
</g>
<!-- 7&#45;&gt;6 -->
<g id="edge23" class="edge">
<title>7&#45;&gt;6</title>
<path fill="none" stroke="black" d="M198.91,-116.85C212.2,-110.88 231.39,-102.25 246.77,-95.34"/>
<polygon fill="black" stroke="black" points="248.54,-98.38 256.23,-91.09 245.67,-92 248.54,-98.38"/>
<text text-anchor="middle" x="227.5" y="-111.8" font-family="Times,serif" font-size="14.00">4</text>
</g>
<!-- 6&#45;&gt;2 -->
<g id="edge17" class="edge">
<title>6&#45;&gt;2</title>
<path fill="none" stroke="black" d="M290.73,-88.32C302.62,-92.19 318.15,-98.98 328,-110 346.01,-130.15 354.88,-160.12 359.16,-181.99"/>
<polygon fill="black" stroke="black" points="355.74,-182.76 360.92,-192 362.64,-181.55 355.74,-182.76"/>
<text text-anchor="middle" x="318.5" y="-113.8" font-family="Times,serif" font-size="14.00">12</text>
</g>
<!-- 6&#45;&gt;7 -->
<g id="edge18" class="edge">
<title>6&#45;&gt;7</title>
<path fill="none" stroke="black" d="M257.05,-75.39C245.77,-70.11 230.21,-65.5 218,-72 207.34,-77.68 199.34,-88.21 193.7,-98.32"/>
<polygon fill="black" stroke="black" points="190.54,-96.82 189.18,-107.33 196.79,-99.96 190.54,-96.82"/>
<text text-anchor="middle" x="227.5" y="-75.8" font-family="Times,serif" font-size="14.00">0</text>
</g>
<!-- 1&#45;&gt;8 -->
<g id="edge22" class="edge">
<title>1&#45;&gt;8</title>
<path fill="none" stroke="black" d="M694.69,-84.13C688.6,-80.51 681.24,-76.84 674,-75 665.82,-72.92 663.18,-72.92 655,-75 651.04,-76.01 647.05,-77.56 643.24,-79.35"/>
<polygon fill="black" stroke="black" points="641.48,-76.33 634.31,-84.13 644.78,-82.5 641.48,-76.33"/>
<text text-anchor="middle" x="664.5" y="-78.8" font-family="Times,serif" font-size="14.00">5</text>
</g>
</g>
</svg>
