<?xml version="1.0" encoding="UTF-8" standalone="no"?>
<!DOCTYPE svg PUBLIC "-//W3C//DTD SVG 1.1//EN"
 "http://www.w3.org/Graphics/SVG/1.1/DTD/svg11.dtd">
<!-- Generated by graphviz version 2.43.0 (0)
 -->
<!-- Title: finite_state_machine Pages: 1 -->
<svg width="234pt" height="79pt"
 viewBox="0.00 0.00 234.00 79.00" xmlns="http://www.w3.org/2000/svg" xmlns:xlink="http://www.w3.org/1999/xlink">
<g id="graph0" class="graph" transform="scale(1 1) rotate(0) translate(4 75)">
<title>finite_state_machine</title>
<polygon fill="white" stroke="transparent" points="-4,4 -4,-75 230,-75 230,4 -4,4"/>
<!-- 0 -->
<g id="node1" class="node">
<title>0</title>
<ellipse fill="none" stroke="black" cx="18" cy="-35" rx="18" ry="18"/>
<text text-anchor="middle" x="18" y="-31.3" font-family="Times,serif" font-size="14.00">0</text>
</g>
<!-- 1 -->
<g id="node2" class="node">
<title>1</title>
<ellipse fill="none" stroke="black" cx="113" cy="-53" rx="18" ry="18"/>
<text text-anchor="middle" x="113" y="-49.3" font-family="Times,serif" font-size="14.00">1</text>
</g>
<!-- 0&#45;&gt;1 -->
<g id="edge1" class="edge">
<title>0&#45;&gt;1</title>
<path fill="none" stroke="black" d="M34.21,-43.54C40.19,-46.47 47.24,-49.4 54,-51 63.94,-53.34 75.1,-54.15 84.95,-54.26"/>
<polygon fill="black" stroke="black" points="85.06,-57.76 95.02,-54.15 84.98,-50.76 85.06,-57.76"/>
<text text-anchor="middle" x="65.5" y="-56.8" font-family="Times,serif" font-size="14.00">2/2</text>
</g>
<!-- 2 -->
<g id="node3" class="node">
<title>2</title>
<ellipse fill="none" stroke="black" cx="208" cy="-18" rx="18" ry="18"/>
<text text-anchor="middle" x="208" y="-14.3" font-family="Times,serif" font-size="14.00">2</text>
</g>
<!-- 0&#45;&gt;2 -->
<g id="edge2" class="edge">
<title>0&#45;&gt;2</title>
<path fill="none" stroke="black" d="M34.96,-28.38C50.11,-22.48 73.67,-14.29 95,-11 123.92,-6.54 157.46,-9.73 180.25,-13.12"/>
<polygon fill="black" stroke="black" points="179.77,-16.59 190.2,-14.72 180.88,-9.67 179.77,-16.59"/>
<text text-anchor="middle" x="113" y="-14.8" font-family="Times,serif" font-size="14.00">4/4</text>
</g>
<!-- 1&#45;&gt;0 -->
<g id="edge4" class="edge">
<title>1&#45;&gt;0</title>
<path fill="none" stroke="black" d="M98.16,-42.33C92.03,-38.25 84.51,-34.08 77,-32 67.08,-29.25 55.85,-29.17 45.93,-30.07"/>
<polygon fill="black" stroke="black" points="45.29,-26.62 35.81,-31.35 46.17,-33.57 45.29,-26.62"/>
<text text-anchor="middle" x="65.5" y="-35.8" font-family="Times,serif" font-size="14.00">0/4</text>
</g>
<!-- 1&#45;&gt;2 -->
<g id="edge3" class="edge">
<title>1&#45;&gt;2</title>
<path fill="none" stroke="black" d="M130.2,-46.9C144.34,-41.58 165.09,-33.77 181.46,-27.61"/>
<polygon fill="black" stroke="black" points="182.86,-30.82 190.99,-24.03 180.39,-24.27 182.86,-30.82"/>
<text text-anchor="middle" x="160.5" y="-42.8" font-family="Times,serif" font-size="14.00">2/3</text>
</g>
</g>
</svg>
