<?xml version="1.0" encoding="UTF-8" standalone="no"?>
<!DOCTYPE svg PUBLIC "-//W3C//DTD SVG 1.1//EN"
 "http://www.w3.org/Graphics/SVG/1.1/DTD/svg11.dtd">
<!-- Generated by graphviz version 2.43.0 (0)
 -->
<!-- Title: finite_state_machine Pages: 1 -->
<svg width="208pt" height="79pt"
 viewBox="0.00 0.00 208.00 79.00" xmlns="http://www.w3.org/2000/svg" xmlns:xlink="http://www.w3.org/1999/xlink">
<g id="graph0" class="graph" transform="scale(1 1) rotate(0) translate(4 75)">
<title>finite_state_machine</title>
<polygon fill="white" stroke="transparent" points="-4,4 -4,-75 204,-75 204,4 -4,4"/>
<!-- 1 -->
<g id="node1" class="node">
<title>1</title>
<ellipse fill="none" stroke="black" cx="18" cy="-35" rx="18" ry="18"/>
<text text-anchor="middle" x="18" y="-31.3" font-family="Times,serif" font-size="14.00">1</text>
</g>
<!-- 0 -->
<g id="node2" class="node">
<title>0</title>
<ellipse fill="none" stroke="black" cx="100" cy="-53" rx="18" ry="18"/>
<text text-anchor="middle" x="100" y="-49.3" font-family="Times,serif" font-size="14.00">0</text>
</g>
<!-- 1&#45;&gt;0 -->
<g id="edge1" class="edge">
<title>1&#45;&gt;0</title>
<path fill="none" stroke="black" d="M34.22,-43.5C40.2,-46.43 47.25,-49.37 54,-51 59.61,-52.35 65.72,-53.09 71.58,-53.46"/>
<polygon fill="black" stroke="black" points="71.59,-56.96 81.69,-53.77 71.8,-49.96 71.59,-56.96"/>
<text text-anchor="middle" x="59" y="-55.8" font-family="Times,serif" font-size="14.00">4</text>
</g>
<!-- 2 -->
<g id="node3" class="node">
<title>2</title>
<ellipse fill="none" stroke="black" cx="182" cy="-18" rx="18" ry="18"/>
<text text-anchor="middle" x="182" y="-14.3" font-family="Times,serif" font-size="14.00">2</text>
</g>
<!-- 1&#45;&gt;2 -->
<g id="edge2" class="edge">
<title>1&#45;&gt;2</title>
<path fill="none" stroke="black" d="M34.33,-27.35C46.82,-21.57 65.08,-14.11 82,-11 106.13,-6.56 134.05,-9.23 154.08,-12.47"/>
<polygon fill="black" stroke="black" points="153.58,-15.93 164.04,-14.23 154.8,-9.04 153.58,-15.93"/>
<text text-anchor="middle" x="100" y="-14.8" font-family="Times,serif" font-size="14.00">3</text>
</g>
<!-- 0&#45;&gt;1 -->
<g id="edge4" class="edge">
<title>0&#45;&gt;1</title>
<path fill="none" stroke="black" d="M85.16,-42.33C79.03,-38.25 71.51,-34.08 64,-32 58.34,-30.43 52.14,-30.04 46.19,-30.27"/>
<polygon fill="black" stroke="black" points="45.57,-26.81 35.94,-31.24 46.22,-33.78 45.57,-26.81"/>
<text text-anchor="middle" x="59" y="-35.8" font-family="Times,serif" font-size="14.00">2</text>
</g>
<!-- 0&#45;&gt;2 -->
<g id="edge3" class="edge">
<title>0&#45;&gt;2</title>
<path fill="none" stroke="black" d="M116.81,-46.09C127.98,-41.2 143.19,-34.54 156.01,-28.94"/>
<polygon fill="black" stroke="black" points="157.47,-32.12 165.23,-24.9 154.66,-25.7 157.47,-32.12"/>
<text text-anchor="middle" x="141" y="-40.8" font-family="Times,serif" font-size="14.00">4</text>
</g>
</g>
</svg>
