<?xml version="1.0" encoding="UTF-8" standalone="no"?>
<!DOCTYPE svg PUBLIC "-//W3C//DTD SVG 1.1//EN"
 "http://www.w3.org/Graphics/SVG/1.1/DTD/svg11.dtd">
<!-- Generated by graphviz version 2.43.0 (0)
 -->
<!-- Title: finite_state_machine Pages: 1 -->
<svg width="208pt" height="92pt"
 viewBox="0.00 0.00 208.00 91.75" xmlns="http://www.w3.org/2000/svg" xmlns:xlink="http://www.w3.org/1999/xlink">
<g id="graph0" class="graph" transform="scale(1 1) rotate(0) translate(4 87.75)">
<title>finite_state_machine</title>
<polygon fill="white" stroke="transparent" points="-4,4 -4,-87.75 204,-87.75 204,4 -4,4"/>
<!-- 1 -->
<g id="node1" class="node">
<title>1</title>
<ellipse fill="none" stroke="black" cx="18" cy="-20.75" rx="18" ry="18"/>
<text text-anchor="middle" x="18" y="-17.05" font-family="Times,serif" font-size="14.00">1</text>
</g>
<!-- 2 -->
<g id="node2" class="node">
<title>2</title>
<ellipse fill="none" stroke="black" cx="100" cy="-65.75" rx="18" ry="18"/>
<text text-anchor="middle" x="100" y="-62.05" font-family="Times,serif" font-size="14.00">2</text>
</g>
<!-- 1&#45;&gt;2 -->
<g id="edge1" class="edge">
<title>1&#45;&gt;2</title>
<path fill="none" stroke="black" d="M30.41,-34.33C36.73,-41.07 45.1,-48.79 54,-53.75 59.52,-56.83 65.86,-59.14 72.01,-60.88"/>
<polygon fill="black" stroke="black" points="71.46,-64.34 82,-63.28 73.1,-57.54 71.46,-64.34"/>
<text text-anchor="middle" x="59" y="-61.55" font-family="Times,serif" font-size="14.00">3</text>
</g>
<!-- 0 -->
<g id="node3" class="node">
<title>0</title>
<ellipse fill="none" stroke="black" cx="182" cy="-20.75" rx="18" ry="18"/>
<text text-anchor="middle" x="182" y="-17.05" font-family="Times,serif" font-size="14.00">0</text>
</g>
<!-- 1&#45;&gt;0 -->
<g id="edge2" class="edge">
<title>1&#45;&gt;0</title>
<path fill="none" stroke="black" d="M36.03,-20.75C64.03,-20.75 120.04,-20.75 153.65,-20.75"/>
<polygon fill="black" stroke="black" points="153.71,-24.25 163.71,-20.75 153.71,-17.25 153.71,-24.25"/>
<text text-anchor="middle" x="100" y="-24.55" font-family="Times,serif" font-size="14.00">4</text>
</g>
<!-- 2&#45;&gt;1 -->
<g id="edge4" class="edge">
<title>2&#45;&gt;1</title>
<path fill="none" stroke="black" d="M87.05,-52.85C80.71,-46.64 72.49,-39.53 64,-34.75 58.43,-31.61 52.07,-29.08 45.91,-27.09"/>
<polygon fill="black" stroke="black" points="46.51,-23.62 35.93,-24.21 44.57,-30.34 46.51,-23.62"/>
<text text-anchor="middle" x="59" y="-38.55" font-family="Times,serif" font-size="14.00">0</text>
</g>
<!-- 2&#45;&gt;0 -->
<g id="edge3" class="edge">
<title>2&#45;&gt;0</title>
<path fill="none" stroke="black" d="M118,-63.28C126.76,-61.5 137.38,-58.55 146,-53.75 151.84,-50.5 157.45,-46.05 162.41,-41.48"/>
<polygon fill="black" stroke="black" points="164.96,-43.87 169.59,-34.33 160.03,-38.9 164.96,-43.87"/>
<text text-anchor="middle" x="141" y="-61.55" font-family="Times,serif" font-size="14.00">0</text>
</g>
<!-- 0&#45;&gt;1 -->
<g id="edge6" class="edge">
<title>0&#45;&gt;1</title>
<path fill="none" stroke="black" d="M164.98,-14.5C152.42,-9.94 134.39,-4.17 118,-1.75 102.17,0.58 97.83,0.58 82,-1.75 69.45,-3.6 55.94,-7.42 44.66,-11.15"/>
<polygon fill="black" stroke="black" points="43.32,-7.91 35.02,-14.5 45.61,-14.53 43.32,-7.91"/>
<text text-anchor="middle" x="100" y="-5.55" font-family="Times,serif" font-size="14.00">2</text>
</g>
<!-- 0&#45;&gt;2 -->
<g id="edge5" class="edge">
<title>0&#45;&gt;2</title>
<path fill="none" stroke="black" d="M164.07,-24.21C155.32,-26.44 144.7,-29.85 136,-34.75 130.56,-37.82 125.24,-41.83 120.44,-45.96"/>
<polygon fill="black" stroke="black" points="117.94,-43.5 112.95,-52.85 122.68,-48.65 117.94,-43.5"/>
<text text-anchor="middle" x="141" y="-38.55" font-family="Times,serif" font-size="14.00">4</text>
</g>
</g>
</svg>
