<?xml version="1.0" encoding="UTF-8" standalone="no"?>
<!DOCTYPE svg PUBLIC "-//W3C//DTD SVG 1.1//EN"
 "http://www.w3.org/Graphics/SVG/1.1/DTD/svg11.dtd">
<!-- Generated by graphviz version 2.43.0 (0)
 -->
<!-- Title: finite_state_machine Pages: 1 -->
<svg width="226pt" height="92pt"
 viewBox="0.00 0.00 226.00 91.54" xmlns="http://www.w3.org/2000/svg" xmlns:xlink="http://www.w3.org/1999/xlink">
<g id="graph0" class="graph" transform="scale(1 1) rotate(0) translate(4 87.54)">
<title>finite_state_machine</title>
<polygon fill="white" stroke="transparent" points="-4,4 -4,-87.54 222,-87.54 222,4 -4,4"/>
<!-- 1 -->
<g id="node1" class="node">
<title>1</title>
<ellipse fill="none" stroke="black" cx="18" cy="-20.54" rx="18" ry="18"/>
<text text-anchor="middle" x="18" y="-16.84" font-family="Times,serif" font-size="14.00">1</text>
</g>
<!-- 0 -->
<g id="node2" class="node">
<title>0</title>
<ellipse fill="none" stroke="black" cx="109" cy="-65.54" rx="18" ry="18"/>
<text text-anchor="middle" x="109" y="-61.84" font-family="Times,serif" font-size="14.00">0</text>
</g>
<!-- 1&#45;&gt;0 -->
<g id="edge1" class="edge">
<title>1&#45;&gt;0</title>
<path fill="none" stroke="black" d="M30.02,-33.95C36.35,-40.8 44.85,-48.69 54,-53.54 62.17,-57.88 71.84,-60.65 80.72,-62.42"/>
<polygon fill="black" stroke="black" points="80.21,-65.88 90.64,-64.07 81.36,-58.97 80.21,-65.88"/>
<text text-anchor="middle" x="63.5" y="-63.34" font-family="Times,serif" font-size="14.00">18</text>
</g>
<!-- 2 -->
<g id="node3" class="node">
<title>2</title>
<ellipse fill="none" stroke="black" cx="200" cy="-20.54" rx="18" ry="18"/>
<text text-anchor="middle" x="200" y="-16.84" font-family="Times,serif" font-size="14.00">2</text>
</g>
<!-- 1&#45;&gt;2 -->
<g id="edge2" class="edge">
<title>1&#45;&gt;2</title>
<path fill="none" stroke="black" d="M36.26,-20.54C67.57,-20.54 133.98,-20.54 171.57,-20.54"/>
<polygon fill="black" stroke="black" points="171.79,-24.04 181.79,-20.54 171.79,-17.04 171.79,-24.04"/>
<text text-anchor="middle" x="109" y="-24.34" font-family="Times,serif" font-size="14.00">0</text>
</g>
<!-- 0&#45;&gt;1 -->
<g id="edge5" class="edge">
<title>0&#45;&gt;1</title>
<path fill="none" stroke="black" d="M96.14,-52.47C89.83,-46.22 81.6,-39.12 73,-34.54 64.77,-30.16 55.09,-27.09 46.21,-24.97"/>
<polygon fill="black" stroke="black" points="46.8,-21.52 36.3,-22.9 45.37,-28.37 46.8,-21.52"/>
<text text-anchor="middle" x="63.5" y="-38.34" font-family="Times,serif" font-size="14.00">6</text>
</g>
<!-- 0&#45;&gt;2 -->
<g id="edge6" class="edge">
<title>0&#45;&gt;2</title>
<path fill="none" stroke="black" d="M127.36,-64.07C138.37,-62.58 152.63,-59.57 164,-53.54 170,-50.36 175.73,-45.87 180.74,-41.22"/>
<polygon fill="black" stroke="black" points="183.4,-43.51 187.98,-33.95 178.44,-38.57 183.4,-43.51"/>
<text text-anchor="middle" x="154.5" y="-63.34" font-family="Times,serif" font-size="14.00">0</text>
</g>
<!-- 2&#45;&gt;1 -->
<g id="edge3" class="edge">
<title>2&#45;&gt;1</title>
<path fill="none" stroke="black" d="M182.65,-14.94C168.22,-10.3 146.49,-4.07 127,-1.54 111.13,0.51 106.87,0.51 91,-1.54 75.47,-3.56 58.52,-7.92 44.97,-11.96"/>
<polygon fill="black" stroke="black" points="43.86,-8.63 35.35,-14.94 45.93,-15.32 43.86,-8.63"/>
<text text-anchor="middle" x="109" y="-5.34" font-family="Times,serif" font-size="14.00">12</text>
</g>
<!-- 2&#45;&gt;0 -->
<g id="edge4" class="edge">
<title>2&#45;&gt;0</title>
<path fill="none" stroke="black" d="M182.35,-24.54C171.36,-27.54 156.86,-32.23 145,-38.54 140.21,-41.09 135.4,-44.29 130.94,-47.59"/>
<polygon fill="black" stroke="black" points="128.61,-44.98 122.9,-53.91 132.93,-50.48 128.61,-44.98"/>
<text text-anchor="middle" x="154.5" y="-42.34" font-family="Times,serif" font-size="14.00">16</text>
</g>
</g>
</svg>
