<?xml version="1.0" encoding="UTF-8" standalone="no"?>
<!DOCTYPE svg PUBLIC "-//W3C//DTD SVG 1.1//EN"
 "http://www.w3.org/Graphics/SVG/1.1/DTD/svg11.dtd">
<!-- Generated by graphviz version 2.43.0 (0)
 -->
<!-- Title: finite_state_machine Pages: 1 -->
<svg width="415pt" height="155pt"
 viewBox="0.00 0.00 414.57 155.29" xmlns="http://www.w3.org/2000/svg" xmlns:xlink="http://www.w3.org/1999/xlink">
<g id="graph0" class="graph" transform="scale(1 1) rotate(0) translate(4 151.29)">
<title>finite_state_machine</title>
<polygon fill="white" stroke="transparent" points="-4,4 -4,-151.29 410.57,-151.29 410.57,4 -4,4"/>
<!-- Toulouse -->
<g id="node1" class="node">
<title>Toulouse</title>
<ellipse fill="none" stroke="black" cx="52" cy="-70.95" rx="51.99" ry="51.99"/>
<text text-anchor="middle" x="52" y="-67.25" font-family="Times,serif" font-size="14.00">Toulouse</text>
</g>
<!-- Dubai -->
<g id="node2" class="node">
<title>Dubai</title>
<ellipse fill="none" stroke="black" cx="201.34" cy="-108.95" rx="38.19" ry="38.19"/>
<text text-anchor="middle" x="201.34" y="-105.25" font-family="Times,serif" font-size="14.00">Dubai</text>
</g>
<!-- Toulouse&#45;&gt;Dubai -->
<g id="edge1" class="edge">
<title>Toulouse&#45;&gt;Dubai</title>
<path fill="none" stroke="black" d="M102.47,-83.7C119.08,-87.99 137.55,-92.75 153.92,-96.97"/>
<polygon fill="black" stroke="black" points="153.25,-100.42 163.81,-99.52 155,-93.64 153.25,-100.42"/>
<text text-anchor="middle" x="133.49" y="-97.75" font-family="Times,serif" font-size="14.00">2/2</text>
</g>
<!-- Marseille -->
<g id="node3" class="node">
<title>Marseille</title>
<ellipse fill="none" stroke="black" cx="352.63" cy="-53.95" rx="53.89" ry="53.89"/>
<text text-anchor="middle" x="352.63" y="-50.25" font-family="Times,serif" font-size="14.00">Marseille</text>
</g>
<!-- Toulouse&#45;&gt;Marseille -->
<g id="edge2" class="edge">
<title>Toulouse&#45;&gt;Marseille</title>
<path fill="none" stroke="black" d="M102.45,-57.79C121.26,-53.41 142.97,-49.1 162.99,-46.95 204.69,-42.45 251.83,-44.2 288.56,-47.07"/>
<polygon fill="black" stroke="black" points="288.38,-50.57 298.63,-47.91 288.96,-43.59 288.38,-50.57"/>
<text text-anchor="middle" x="201.34" y="-50.75" font-family="Times,serif" font-size="14.00">4/4</text>
</g>
<!-- Dubai&#45;&gt;Toulouse -->
<g id="edge4" class="edge">
<title>Dubai&#45;&gt;Toulouse</title>
<path fill="none" stroke="black" d="M172.37,-83.61C164.12,-77.63 154.69,-72.08 144.99,-68.95 135.08,-65.74 124.26,-64.3 113.63,-63.93"/>
<polygon fill="black" stroke="black" points="113.54,-60.43 103.53,-63.88 113.51,-67.43 113.54,-60.43"/>
<text text-anchor="middle" x="133.49" y="-72.75" font-family="Times,serif" font-size="14.00">0/4</text>
</g>
<!-- Dubai&#45;&gt;Marseille -->
<g id="edge3" class="edge">
<title>Dubai&#45;&gt;Marseille</title>
<path fill="none" stroke="black" d="M237.72,-95.91C254.02,-89.91 273.81,-82.61 292.3,-75.8"/>
<polygon fill="black" stroke="black" points="293.64,-79.04 301.82,-72.3 291.22,-72.47 293.64,-79.04"/>
<text text-anchor="middle" x="269.18" y="-91.75" font-family="Times,serif" font-size="14.00">2/3</text>
</g>
</g>
</svg>
