<?xml version="1.0" encoding="UTF-8" standalone="no"?>
<!DOCTYPE svg PUBLIC "-//W3C//DTD SVG 1.1//EN"
 "http://www.w3.org/Graphics/SVG/1.1/DTD/svg11.dtd">
<!-- Generated by graphviz version 2.43.0 (0)
 -->
<!-- Title: finite_state_machine Pages: 1 -->
<svg width="481pt" height="471pt"
 viewBox="0.00 0.00 481.00 471.00" xmlns="http://www.w3.org/2000/svg" xmlns:xlink="http://www.w3.org/1999/xlink">
<g id="graph0" class="graph" transform="scale(1 1) rotate(0) translate(4 467)">
<title>finite_state_machine</title>
<polygon fill="white" stroke="transparent" points="-4,4 -4,-467 477,-467 477,4 -4,4"/>
<!-- 3 -->
<g id="node1" class="node">
<title>3</title>
<ellipse fill="none" stroke="black" cx="18" cy="-155" rx="18" ry="18"/>
<text text-anchor="middle" x="18" y="-151.3" font-family="Times,serif" font-size="14.00">3</text>
</g>
<!-- 1 -->
<g id="node2" class="node">
<title>1</title>
<ellipse fill="none" stroke="black" cx="109" cy="-238" rx="18" ry="18"/>
<text text-anchor="middle" x="109" y="-234.3" font-family="Times,serif" font-size="14.00">1</text>
</g>
<!-- 3&#45;&gt;1 -->
<g id="edge1" class="edge">
<title>3&#45;&gt;1</title>
<path fill="none" stroke="black" d="M34.25,-162.89C45.69,-169.25 61.32,-178.94 73,-190 80.48,-197.08 87.45,-205.94 93.17,-214.12"/>
<polygon fill="black" stroke="black" points="90.38,-216.24 98.85,-222.6 96.2,-212.35 90.38,-216.24"/>
<text text-anchor="middle" x="63.5" y="-193.8" font-family="Times,serif" font-size="14.00">11</text>
</g>
<!-- 2 -->
<g id="node3" class="node">
<title>2</title>
<ellipse fill="none" stroke="black" cx="373" cy="-231" rx="18" ry="18"/>
<text text-anchor="middle" x="373" y="-227.3" font-family="Times,serif" font-size="14.00">2</text>
</g>
<!-- 3&#45;&gt;2 -->
<g id="edge2" class="edge">
<title>3&#45;&gt;2</title>
<path fill="none" stroke="black" d="M24.11,-137.97C34.48,-107.31 61.09,-46 108,-46 108,-46 108,-46 292,-46 359.46,-46 370.69,-150.92 372.12,-202.73"/>
<polygon fill="black" stroke="black" points="368.62,-202.99 372.29,-212.92 375.62,-202.87 368.62,-202.99"/>
<text text-anchor="middle" x="200" y="-49.8" font-family="Times,serif" font-size="14.00">2</text>
</g>
<!-- 4 -->
<g id="node4" class="node">
<title>4</title>
<ellipse fill="none" stroke="black" cx="291" cy="-242" rx="18" ry="18"/>
<text text-anchor="middle" x="291" y="-238.3" font-family="Times,serif" font-size="14.00">4</text>
</g>
<!-- 3&#45;&gt;4 -->
<g id="edge3" class="edge">
<title>3&#45;&gt;4</title>
<path fill="none" stroke="black" d="M28.22,-139.68C34.42,-130.63 43.4,-119.67 54,-113 129.6,-65.41 191.81,-49.85 255,-113 278.03,-136.01 264.42,-152.6 273,-184 275.81,-194.29 279.07,-205.56 281.98,-215.4"/>
<polygon fill="black" stroke="black" points="278.64,-216.46 284.85,-225.04 285.35,-214.46 278.64,-216.46"/>
<text text-anchor="middle" x="154.5" y="-77.8" font-family="Times,serif" font-size="14.00">5</text>
</g>
<!-- 0 -->
<g id="node5" class="node">
<title>0</title>
<ellipse fill="none" stroke="black" cx="455" cy="-221" rx="18" ry="18"/>
<text text-anchor="middle" x="455" y="-217.3" font-family="Times,serif" font-size="14.00">0</text>
</g>
<!-- 3&#45;&gt;0 -->
<g id="edge4" class="edge">
<title>3&#45;&gt;0</title>
<path fill="none" stroke="black" d="M20.51,-172.89C26.37,-236.5 50.19,-448 108,-448 108,-448 108,-448 374,-448 415.78,-448 441.11,-309.46 450.19,-248.84"/>
<polygon fill="black" stroke="black" points="453.67,-249.21 451.65,-238.81 446.74,-248.2 453.67,-249.21"/>
<text text-anchor="middle" x="245.5" y="-451.8" font-family="Times,serif" font-size="14.00">0</text>
</g>
<!-- 1&#45;&gt;3 -->
<g id="edge8" class="edge">
<title>1&#45;&gt;3</title>
<path fill="none" stroke="black" d="M92.18,-230.55C80.74,-224.67 65.37,-215.68 54,-205 46.09,-197.57 38.91,-188.08 33.14,-179.37"/>
<polygon fill="black" stroke="black" points="35.96,-177.28 27.66,-170.69 30.04,-181.02 35.96,-177.28"/>
<text text-anchor="middle" x="63.5" y="-221.8" font-family="Times,serif" font-size="14.00">0</text>
</g>
<!-- 1&#45;&gt;4 -->
<g id="edge6" class="edge">
<title>1&#45;&gt;4</title>
<path fill="none" stroke="black" d="M126.07,-232.14C147.15,-225.19 185.29,-215.11 218,-220 233.76,-222.35 250.84,-227.46 264.41,-232.15"/>
<polygon fill="black" stroke="black" points="263.42,-235.52 274.02,-235.62 265.8,-228.93 263.42,-235.52"/>
<text text-anchor="middle" x="200" y="-223.8" font-family="Times,serif" font-size="14.00">1</text>
</g>
<!-- 1&#45;&gt;0 -->
<g id="edge7" class="edge">
<title>1&#45;&gt;0</title>
<path fill="none" stroke="black" d="M114.09,-255.34C123.13,-288.79 148.15,-359 199,-359 199,-359 199,-359 374,-359 424.46,-359 443.62,-289.08 450.47,-248.78"/>
<polygon fill="black" stroke="black" points="453.95,-249.18 452.02,-238.76 447.03,-248.1 453.95,-249.18"/>
<text text-anchor="middle" x="291" y="-362.8" font-family="Times,serif" font-size="14.00">0</text>
</g>
<!-- 5 -->
<g id="node6" class="node">
<title>5</title>
<ellipse fill="none" stroke="black" cx="200" cy="-262" rx="18" ry="18"/>
<text text-anchor="middle" x="200" y="-258.3" font-family="Times,serif" font-size="14.00">5</text>
</g>
<!-- 1&#45;&gt;5 -->
<g id="edge5" class="edge">
<title>1&#45;&gt;5</title>
<path fill="none" stroke="black" d="M127.32,-238.82C138.06,-239.68 152.04,-241.43 164,-245 167.64,-246.09 171.38,-247.52 174.99,-249.09"/>
<polygon fill="black" stroke="black" points="173.57,-252.29 184.1,-253.44 176.58,-245.98 173.57,-252.29"/>
<text text-anchor="middle" x="154.5" y="-248.8" font-family="Times,serif" font-size="14.00">21</text>
</g>
<!-- 2&#45;&gt;3 -->
<g id="edge12" class="edge">
<title>2&#45;&gt;3</title>
<path fill="none" stroke="black" d="M371.86,-248.97C370.46,-293.42 360.16,-405 292,-405 108,-405 108,-405 108,-405 61.3,-405 32.75,-248.24 22.89,-182.98"/>
<polygon fill="black" stroke="black" points="26.34,-182.36 21.42,-172.98 19.41,-183.38 26.34,-182.36"/>
<text text-anchor="middle" x="200" y="-408.8" font-family="Times,serif" font-size="14.00">0</text>
</g>
<!-- 2&#45;&gt;4 -->
<g id="edge14" class="edge">
<title>2&#45;&gt;4</title>
<path fill="none" stroke="black" d="M355.06,-233.33C344.56,-234.77 330.85,-236.66 318.9,-238.3"/>
<polygon fill="black" stroke="black" points="318.4,-234.84 308.97,-239.67 319.35,-241.77 318.4,-234.84"/>
<text text-anchor="middle" x="332" y="-240.8" font-family="Times,serif" font-size="14.00">4</text>
</g>
<!-- 2&#45;&gt;0 -->
<g id="edge13" class="edge">
<title>2&#45;&gt;0</title>
<path fill="none" stroke="black" d="M390.97,-228.88C401.47,-227.57 415.18,-225.85 427.13,-224.36"/>
<polygon fill="black" stroke="black" points="427.57,-227.83 437.06,-223.12 426.7,-220.89 427.57,-227.83"/>
<text text-anchor="middle" x="414" y="-229.8" font-family="Times,serif" font-size="14.00">8</text>
</g>
<!-- 4&#45;&gt;3 -->
<g id="edge17" class="edge">
<title>4&#45;&gt;3</title>
<path fill="none" stroke="black" d="M279.37,-228.21C259.72,-203.98 215.03,-154.61 164,-136 123.89,-121.37 73.9,-134.16 44.33,-144.66"/>
<polygon fill="black" stroke="black" points="42.91,-141.45 34.77,-148.23 45.36,-148.01 42.91,-141.45"/>
<text text-anchor="middle" x="154.5" y="-139.8" font-family="Times,serif" font-size="14.00">0</text>
</g>
<!-- 4&#45;&gt;1 -->
<g id="edge18" class="edge">
<title>4&#45;&gt;1</title>
<path fill="none" stroke="black" d="M280.34,-256.73C274.09,-265.1 265.23,-275.06 255,-281 226.78,-297.39 214.5,-292.05 182,-289 165.34,-287.44 159.33,-290.65 145,-282 136.83,-277.07 129.8,-269.49 124.22,-262"/>
<polygon fill="black" stroke="black" points="126.9,-259.71 118.37,-253.42 121.11,-263.65 126.9,-259.71"/>
<text text-anchor="middle" x="200" y="-295.8" font-family="Times,serif" font-size="14.00">0</text>
</g>
<!-- 4&#45;&gt;2 -->
<g id="edge19" class="edge">
<title>4&#45;&gt;2</title>
<path fill="none" stroke="black" d="M304.47,-229.65C310.7,-224.35 318.66,-218.76 327,-216 333.83,-213.74 341.24,-214.77 348.03,-217.11"/>
<polygon fill="black" stroke="black" points="346.85,-220.41 357.41,-221.23 349.67,-214 346.85,-220.41"/>
<text text-anchor="middle" x="332" y="-219.8" font-family="Times,serif" font-size="14.00">8</text>
</g>
<!-- 4&#45;&gt;5 -->
<g id="edge20" class="edge">
<title>4&#45;&gt;5</title>
<path fill="none" stroke="black" d="M273.15,-239.25C262.34,-238.08 248.11,-237.65 236,-241 231.77,-242.17 227.55,-244 223.57,-246.11"/>
<polygon fill="black" stroke="black" points="221.62,-243.19 214.84,-251.33 225.22,-249.2 221.62,-243.19"/>
<text text-anchor="middle" x="245.5" y="-244.8" font-family="Times,serif" font-size="14.00">6</text>
</g>
<!-- 0&#45;&gt;3 -->
<g id="edge10" class="edge">
<title>0&#45;&gt;3</title>
<path fill="none" stroke="black" d="M451.5,-203.29C443.61,-150.85 417.15,0 374,0 108,0 108,0 108,0 49.97,0 29.23,-82.71 22.26,-127.29"/>
<polygon fill="black" stroke="black" points="18.8,-126.82 20.84,-137.22 25.73,-127.82 18.8,-126.82"/>
<text text-anchor="middle" x="245.5" y="-3.8" font-family="Times,serif" font-size="14.00">10</text>
</g>
<!-- 0&#45;&gt;1 -->
<g id="edge9" class="edge">
<title>0&#45;&gt;1</title>
<path fill="none" stroke="black" d="M443.47,-207.16C429.55,-190.57 403.33,-165 374,-165 199,-165 199,-165 199,-165 167.21,-165 140.56,-193.19 124.94,-214.53"/>
<polygon fill="black" stroke="black" points="121.97,-212.67 119.13,-222.87 127.72,-216.67 121.97,-212.67"/>
<text text-anchor="middle" x="291" y="-168.8" font-family="Times,serif" font-size="14.00">7</text>
</g>
<!-- 0&#45;&gt;2 -->
<g id="edge11" class="edge">
<title>0&#45;&gt;2</title>
<path fill="none" stroke="black" d="M440.33,-210.09C431.47,-204.37 419.64,-199.27 409,-203 403.58,-204.9 398.38,-208.03 393.73,-211.52"/>
<polygon fill="black" stroke="black" points="391.4,-208.9 385.99,-218.01 395.9,-214.26 391.4,-208.9"/>
<text text-anchor="middle" x="414" y="-206.8" font-family="Times,serif" font-size="14.00">0</text>
</g>
<!-- 5&#45;&gt;1 -->
<g id="edge15" class="edge">
<title>5&#45;&gt;1</title>
<path fill="none" stroke="black" d="M181.59,-263.62C170.82,-264.07 156.83,-263.65 145,-260 140.56,-258.63 136.13,-256.55 131.98,-254.2"/>
<polygon fill="black" stroke="black" points="133.79,-251.2 123.47,-248.8 130.04,-257.11 133.79,-251.2"/>
<text text-anchor="middle" x="154.5" y="-266.8" font-family="Times,serif" font-size="14.00">0</text>
</g>
<!-- 5&#45;&gt;4 -->
<g id="edge16" class="edge">
<title>5&#45;&gt;4</title>
<path fill="none" stroke="black" d="M218.3,-263.25C229.04,-263.57 243.02,-263.14 255,-260 258.72,-259.03 262.5,-257.61 266.13,-255.99"/>
<polygon fill="black" stroke="black" points="267.89,-259.03 275.25,-251.41 264.74,-252.77 267.89,-259.03"/>
<text text-anchor="middle" x="245.5" y="-265.8" font-family="Times,serif" font-size="14.00">8</text>
</g>
</g>
</svg>
