<?xml version="1.0" encoding="UTF-8" standalone="no"?>
<!DOCTYPE svg PUBLIC "-//W3C//DTD SVG 1.1//EN"
 "http://www.w3.org/Graphics/SVG/1.1/DTD/svg11.dtd">
<!-- Generated by graphviz version 2.43.0 (0)
 -->
<!-- Title: finite_state_machine Pages: 1 -->
<svg width="481pt" height="397pt"
 viewBox="0.00 0.00 481.00 397.00" xmlns="http://www.w3.org/2000/svg" xmlns:xlink="http://www.w3.org/1999/xlink">
<g id="graph0" class="graph" transform="scale(1 1) rotate(0) translate(4 393)">
<title>finite_state_machine</title>
<polygon fill="white" stroke="transparent" points="-4,4 -4,-393 477,-393 477,4 -4,4"/>
<!-- 0 -->
<g id="node1" class="node">
<title>0</title>
<ellipse fill="none" stroke="black" cx="18" cy="-181" rx="18" ry="18"/>
<text text-anchor="middle" x="18" y="-177.3" font-family="Times,serif" font-size="14.00">0</text>
</g>
<!-- 1 -->
<g id="node2" class="node">
<title>1</title>
<ellipse fill="none" stroke="black" cx="100" cy="-181" rx="18" ry="18"/>
<text text-anchor="middle" x="100" y="-177.3" font-family="Times,serif" font-size="14.00">1</text>
</g>
<!-- 0&#45;&gt;1 -->
<g id="edge1" class="edge">
<title>0&#45;&gt;1</title>
<path fill="none" stroke="black" d="M36.36,-181C46.7,-181 60.06,-181 71.78,-181"/>
<polygon fill="black" stroke="black" points="71.95,-184.5 81.95,-181 71.95,-177.5 71.95,-184.5"/>
<text text-anchor="middle" x="59" y="-184.8" font-family="Times,serif" font-size="14.00">7</text>
</g>
<!-- 3 -->
<g id="node3" class="node">
<title>3</title>
<ellipse fill="none" stroke="black" cx="455" cy="-155" rx="18" ry="18"/>
<text text-anchor="middle" x="455" y="-151.3" font-family="Times,serif" font-size="14.00">3</text>
</g>
<!-- 0&#45;&gt;3 -->
<g id="edge2" class="edge">
<title>0&#45;&gt;3</title>
<path fill="none" stroke="black" d="M20.68,-163.18C25.36,-124.84 42.25,-38 99,-38 99,-38 99,-38 374,-38 417.15,-38 438.72,-92.9 448.03,-127.49"/>
<polygon fill="black" stroke="black" points="444.71,-128.63 450.54,-137.48 451.5,-126.93 444.71,-128.63"/>
<text text-anchor="middle" x="236.5" y="-41.8" font-family="Times,serif" font-size="14.00">10</text>
</g>
<!-- 2 -->
<g id="node4" class="node">
<title>2</title>
<ellipse fill="none" stroke="black" cx="373" cy="-252" rx="18" ry="18"/>
<text text-anchor="middle" x="373" y="-248.3" font-family="Times,serif" font-size="14.00">2</text>
</g>
<!-- 0&#45;&gt;2 -->
<g id="edge3" class="edge">
<title>0&#45;&gt;2</title>
<path fill="none" stroke="black" d="M18.42,-199.16C17.92,-247.2 23.74,-374 99,-374 99,-374 99,-374 283,-374 329.53,-374 354.32,-315.36 365.15,-279.39"/>
<polygon fill="black" stroke="black" points="368.6,-280.05 367.96,-269.48 361.86,-278.15 368.6,-280.05"/>
<text text-anchor="middle" x="191" y="-377.8" font-family="Times,serif" font-size="14.00">8</text>
</g>
<!-- 1&#45;&gt;0 -->
<g id="edge13" class="edge">
<title>1&#45;&gt;0</title>
<path fill="none" stroke="black" d="M85.19,-170.01C76.47,-164.38 64.85,-159.24 54,-162 50.04,-163.01 46.05,-164.56 42.24,-166.35"/>
<polygon fill="black" stroke="black" points="40.48,-163.33 33.31,-171.13 43.78,-169.5 40.48,-163.33"/>
<text text-anchor="middle" x="59" y="-165.8" font-family="Times,serif" font-size="14.00">0</text>
</g>
<!-- 1&#45;&gt;3 -->
<g id="edge14" class="edge">
<title>1&#45;&gt;3</title>
<path fill="none" stroke="black" d="M109.9,-165.8C116.1,-156.48 125.18,-145.02 136,-138 150.29,-128.72 156.11,-130.24 173,-128 208.38,-123.3 176.06,-123.6 391,-136 403.46,-136.72 406.95,-134.77 419,-138 422.67,-138.98 426.43,-140.36 430.04,-141.9"/>
<polygon fill="black" stroke="black" points="428.62,-145.1 439.16,-146.24 431.63,-138.78 428.62,-145.1"/>
<text text-anchor="middle" x="282" y="-133.8" font-family="Times,serif" font-size="14.00">0</text>
</g>
<!-- 4 -->
<g id="node5" class="node">
<title>4</title>
<ellipse fill="none" stroke="black" cx="282" cy="-191" rx="18" ry="18"/>
<text text-anchor="middle" x="282" y="-187.3" font-family="Times,serif" font-size="14.00">4</text>
</g>
<!-- 1&#45;&gt;4 -->
<g id="edge12" class="edge">
<title>1&#45;&gt;4</title>
<path fill="none" stroke="black" d="M114.17,-169.82C120.54,-164.67 128.43,-158.69 136,-154 164.4,-136.39 176.69,-127.47 209,-136 229.98,-141.54 249.25,-157.07 262.57,-170.23"/>
<polygon fill="black" stroke="black" points="260.22,-172.84 269.69,-177.6 265.26,-167.98 260.22,-172.84"/>
<text text-anchor="middle" x="191" y="-139.8" font-family="Times,serif" font-size="14.00">1</text>
</g>
<!-- 5 -->
<g id="node6" class="node">
<title>5</title>
<ellipse fill="none" stroke="black" cx="191" cy="-178" rx="18" ry="18"/>
<text text-anchor="middle" x="191" y="-174.3" font-family="Times,serif" font-size="14.00">5</text>
</g>
<!-- 1&#45;&gt;5 -->
<g id="edge11" class="edge">
<title>1&#45;&gt;5</title>
<path fill="none" stroke="black" d="M118.16,-180.42C130.72,-180 148.02,-179.42 162.5,-178.93"/>
<polygon fill="black" stroke="black" points="163.02,-182.41 172.89,-178.58 162.78,-175.42 163.02,-182.41"/>
<text text-anchor="middle" x="145.5" y="-182.8" font-family="Times,serif" font-size="14.00">21</text>
</g>
<!-- 3&#45;&gt;0 -->
<g id="edge7" class="edge">
<title>3&#45;&gt;0</title>
<path fill="none" stroke="black" d="M452.96,-136.92C449.54,-96.03 435.02,0 374,0 99,0 99,0 99,0 32.93,0 20.98,-102.15 19.12,-152.97"/>
<polygon fill="black" stroke="black" points="15.62,-152.9 18.86,-162.98 22.62,-153.08 15.62,-152.9"/>
<text text-anchor="middle" x="236.5" y="-3.8" font-family="Times,serif" font-size="14.00">0</text>
</g>
<!-- 3&#45;&gt;1 -->
<g id="edge4" class="edge">
<title>3&#45;&gt;1</title>
<path fill="none" stroke="black" d="M453.81,-173.19C452.28,-217.6 441.67,-328 374,-328 190,-328 190,-328 190,-328 134.86,-328 112.95,-251.37 105.03,-208.76"/>
<polygon fill="black" stroke="black" points="108.44,-207.99 103.3,-198.73 101.55,-209.18 108.44,-207.99"/>
<text text-anchor="middle" x="282" y="-331.8" font-family="Times,serif" font-size="14.00">11</text>
</g>
<!-- 3&#45;&gt;2 -->
<g id="edge5" class="edge">
<title>3&#45;&gt;2</title>
<path fill="none" stroke="black" d="M449.53,-172.44C444.51,-189.03 434.91,-213.8 419,-230 413.76,-235.34 406.96,-239.57 400.24,-242.84"/>
<polygon fill="black" stroke="black" points="398.46,-239.8 390.65,-246.96 401.22,-246.23 398.46,-239.8"/>
<text text-anchor="middle" x="414" y="-240.8" font-family="Times,serif" font-size="14.00">2</text>
</g>
<!-- 3&#45;&gt;4 -->
<g id="edge6" class="edge">
<title>3&#45;&gt;4</title>
<path fill="none" stroke="black" d="M437.56,-149.38C417.65,-143.43 383.27,-135.93 355,-144 335.98,-149.43 317.36,-161.83 303.82,-172.53"/>
<polygon fill="black" stroke="black" points="301.59,-169.84 296.09,-178.89 306.04,-175.24 301.59,-169.84"/>
<text text-anchor="middle" x="373" y="-147.8" font-family="Times,serif" font-size="14.00">5</text>
</g>
<!-- 2&#45;&gt;0 -->
<g id="edge9" class="edge">
<title>2&#45;&gt;0</title>
<path fill="none" stroke="black" d="M355.37,-256.02C349.59,-257.24 343.04,-258.4 337,-259 328.6,-259.83 326.4,-259.86 318,-259 211.25,-248.07 185.91,-234.81 82,-208 69.47,-204.77 65.98,-204.89 54,-200 50.4,-198.53 46.68,-196.78 43.09,-194.96"/>
<polygon fill="black" stroke="black" points="44.45,-191.72 33.98,-190.07 41.13,-197.88 44.45,-191.72"/>
<text text-anchor="middle" x="191" y="-244.8" font-family="Times,serif" font-size="14.00">0</text>
</g>
<!-- 2&#45;&gt;3 -->
<g id="edge10" class="edge">
<title>2&#45;&gt;3</title>
<path fill="none" stroke="black" d="M385.12,-238.51C398.36,-222.46 420.64,-195.45 436.26,-176.5"/>
<polygon fill="black" stroke="black" points="439.05,-178.63 442.71,-168.69 433.65,-174.17 439.05,-178.63"/>
<text text-anchor="middle" x="414" y="-212.8" font-family="Times,serif" font-size="14.00">0</text>
</g>
<!-- 2&#45;&gt;4 -->
<g id="edge8" class="edge">
<title>2&#45;&gt;4</title>
<path fill="none" stroke="black" d="M361.13,-238.04C354.72,-230.5 346.1,-221.43 337,-215 328.51,-209 318.28,-203.98 309.02,-200.12"/>
<polygon fill="black" stroke="black" points="310.06,-196.77 299.48,-196.39 307.51,-203.29 310.06,-196.77"/>
<text text-anchor="middle" x="327.5" y="-218.8" font-family="Times,serif" font-size="14.00">12</text>
</g>
<!-- 4&#45;&gt;1 -->
<g id="edge18" class="edge">
<title>4&#45;&gt;1</title>
<path fill="none" stroke="black" d="M265.29,-198.09C259.37,-200.42 252.49,-202.74 246,-204 197.93,-213.31 182.48,-213.38 136,-198 132.39,-196.8 128.67,-195.31 125.07,-193.71"/>
<polygon fill="black" stroke="black" points="126.5,-190.51 115.97,-189.35 123.47,-196.83 126.5,-190.51"/>
<text text-anchor="middle" x="191" y="-213.8" font-family="Times,serif" font-size="14.00">0</text>
</g>
<!-- 4&#45;&gt;3 -->
<g id="edge17" class="edge">
<title>4&#45;&gt;3</title>
<path fill="none" stroke="black" d="M299.71,-187.48C329.33,-181.25 391.31,-168.2 427.04,-160.68"/>
<polygon fill="black" stroke="black" points="428.16,-164.02 437.22,-158.53 426.72,-157.17 428.16,-164.02"/>
<text text-anchor="middle" x="373" y="-178.8" font-family="Times,serif" font-size="14.00">0</text>
</g>
<!-- 4&#45;&gt;2 -->
<g id="edge16" class="edge">
<title>4&#45;&gt;2</title>
<path fill="none" stroke="black" d="M293.36,-205.47C299.73,-213.55 308.48,-223.3 318,-230 326.39,-235.9 336.6,-240.58 345.87,-244.08"/>
<polygon fill="black" stroke="black" points="344.85,-247.42 355.44,-247.41 347.15,-240.81 344.85,-247.42"/>
<text text-anchor="middle" x="327.5" y="-243.8" font-family="Times,serif" font-size="14.00">0</text>
</g>
<!-- 4&#45;&gt;5 -->
<g id="edge15" class="edge">
<title>4&#45;&gt;5</title>
<path fill="none" stroke="black" d="M269.01,-178.01C262.78,-172.23 254.66,-166.04 246,-163 236.32,-159.61 225.46,-161.55 216.03,-165.01"/>
<polygon fill="black" stroke="black" points="214.61,-161.81 206.83,-169 217.4,-168.23 214.61,-161.81"/>
<text text-anchor="middle" x="236.5" y="-166.8" font-family="Times,serif" font-size="14.00">14</text>
</g>
<!-- 5&#45;&gt;1 -->
<g id="edge19" class="edge">
<title>5&#45;&gt;1</title>
<path fill="none" stroke="black" d="M175.28,-168.46C169.25,-165.08 162.04,-161.7 155,-160 146.79,-158.01 144.14,-157.75 136,-160 131.77,-161.17 127.55,-163 123.57,-165.11"/>
<polygon fill="black" stroke="black" points="121.62,-162.19 114.84,-170.33 125.22,-168.2 121.62,-162.19"/>
<text text-anchor="middle" x="145.5" y="-163.8" font-family="Times,serif" font-size="14.00">0</text>
</g>
<!-- 5&#45;&gt;4 -->
<g id="edge20" class="edge">
<title>5&#45;&gt;4</title>
<path fill="none" stroke="black" d="M209.16,-180.51C221.84,-182.36 239.36,-184.92 253.92,-187.04"/>
<polygon fill="black" stroke="black" points="253.49,-190.52 263.89,-188.5 254.5,-183.59 253.49,-190.52"/>
<text text-anchor="middle" x="236.5" y="-188.8" font-family="Times,serif" font-size="14.00">0</text>
</g>
</g>
</svg>
