<?xml version="1.0" encoding="UTF-8" standalone="no"?>
<!DOCTYPE svg PUBLIC "-//W3C//DTD SVG 1.1//EN"
 "http://www.w3.org/Graphics/SVG/1.1/DTD/svg11.dtd">
<!-- Generated by graphviz version 2.43.0 (0)
 -->
<!-- Title: finite_state_machine Pages: 1 -->
<svg width="481pt" height="187pt"
 viewBox="0.00 0.00 481.00 187.00" xmlns="http://www.w3.org/2000/svg" xmlns:xlink="http://www.w3.org/1999/xlink">
<g id="graph0" class="graph" transform="scale(1 1) rotate(0) translate(4 183)">
<title>finite_state_machine</title>
<polygon fill="white" stroke="transparent" points="-4,4 -4,-183 477,-183 477,4 -4,4"/>
<!-- 1 -->
<g id="node1" class="node">
<title>1</title>
<ellipse fill="none" stroke="black" cx="273" cy="-161" rx="18" ry="18"/>
<text text-anchor="middle" x="273" y="-157.3" font-family="Times,serif" font-size="14.00">1</text>
</g>
<!-- 5 -->
<g id="node2" class="node">
<title>5</title>
<ellipse fill="none" stroke="black" cx="364" cy="-118" rx="18" ry="18"/>
<text text-anchor="middle" x="364" y="-114.3" font-family="Times,serif" font-size="14.00">5</text>
</g>
<!-- 1&#45;&gt;5 -->
<g id="edge1" class="edge">
<title>1&#45;&gt;5</title>
<path fill="none" stroke="black" d="M289.26,-152.98C295.37,-149.81 302.49,-146.18 309,-143 318.41,-138.41 328.83,-133.53 337.99,-129.32"/>
<polygon fill="black" stroke="black" points="339.68,-132.39 347.32,-125.05 336.77,-126.03 339.68,-132.39"/>
<text text-anchor="middle" x="318.5" y="-146.8" font-family="Times,serif" font-size="14.00">21</text>
</g>
<!-- 4 -->
<g id="node3" class="node">
<title>4</title>
<ellipse fill="none" stroke="black" cx="455" cy="-104" rx="18" ry="18"/>
<text text-anchor="middle" x="455" y="-100.3" font-family="Times,serif" font-size="14.00">4</text>
</g>
<!-- 1&#45;&gt;4 -->
<g id="edge2" class="edge">
<title>1&#45;&gt;4</title>
<path fill="none" stroke="black" d="M291.27,-162.21C319.72,-163.43 377.42,-162.57 419,-140 425.49,-136.48 431.51,-131.35 436.67,-126.06"/>
<polygon fill="black" stroke="black" points="439.49,-128.15 443.56,-118.37 434.28,-123.48 439.49,-128.15"/>
<text text-anchor="middle" x="364" y="-163.8" font-family="Times,serif" font-size="14.00">1</text>
</g>
<!-- 5&#45;&gt;4 -->
<g id="edge11" class="edge">
<title>5&#45;&gt;4</title>
<path fill="none" stroke="black" d="M380.71,-110.88C386.63,-108.54 393.5,-106.23 400,-105 408.55,-103.38 418,-102.81 426.57,-102.73"/>
<polygon fill="black" stroke="black" points="426.78,-106.23 436.82,-102.86 426.87,-99.23 426.78,-106.23"/>
<text text-anchor="middle" x="409.5" y="-108.8" font-family="Times,serif" font-size="14.00">14</text>
</g>
<!-- 4&#45;&gt;5 -->
<g id="edge12" class="edge">
<title>4&#45;&gt;5</title>
<path fill="none" stroke="black" d="M438.82,-112.66C432.84,-115.6 425.79,-118.52 419,-120 410.4,-121.87 400.85,-122.1 392.2,-121.65"/>
<polygon fill="black" stroke="black" points="392.48,-118.16 382.22,-120.81 391.89,-125.13 392.48,-118.16"/>
<text text-anchor="middle" x="409.5" y="-124.8" font-family="Times,serif" font-size="14.00">0</text>
</g>
<!-- 3 -->
<g id="node4" class="node">
<title>3</title>
<ellipse fill="none" stroke="black" cx="18" cy="-75" rx="18" ry="18"/>
<text text-anchor="middle" x="18" y="-71.3" font-family="Times,serif" font-size="14.00">3</text>
</g>
<!-- 3&#45;&gt;1 -->
<g id="edge3" class="edge">
<title>3&#45;&gt;1</title>
<path fill="none" stroke="black" d="M30.67,-88.08C42.4,-100.36 61.62,-118.27 82,-128 141.92,-156.62 160.93,-157.34 227,-164 232.75,-164.58 238.92,-164.58 244.79,-164.28"/>
<polygon fill="black" stroke="black" points="245.19,-167.76 254.88,-163.48 244.64,-160.78 245.19,-167.76"/>
<text text-anchor="middle" x="145.5" y="-157.8" font-family="Times,serif" font-size="14.00">11</text>
</g>
<!-- 3&#45;&gt;4 -->
<g id="edge5" class="edge">
<title>3&#45;&gt;4</title>
<path fill="none" stroke="black" d="M26.91,-59.09C39.1,-37.08 64.73,0 99,0 99,0 99,0 365,0 405.74,0 431.83,-46.64 444.62,-77.46"/>
<polygon fill="black" stroke="black" points="441.39,-78.8 448.31,-86.83 447.9,-76.24 441.39,-78.8"/>
<text text-anchor="middle" x="232" y="-3.8" font-family="Times,serif" font-size="14.00">5</text>
</g>
<!-- 2 -->
<g id="node5" class="node">
<title>2</title>
<ellipse fill="none" stroke="black" cx="100" cy="-101" rx="18" ry="18"/>
<text text-anchor="middle" x="100" y="-97.3" font-family="Times,serif" font-size="14.00">2</text>
</g>
<!-- 3&#45;&gt;2 -->
<g id="edge4" class="edge">
<title>3&#45;&gt;2</title>
<path fill="none" stroke="black" d="M35.58,-80.39C46.37,-83.9 60.69,-88.55 72.99,-92.55"/>
<polygon fill="black" stroke="black" points="72.13,-95.95 82.72,-95.71 74.29,-89.29 72.13,-95.95"/>
<text text-anchor="middle" x="59" y="-92.8" font-family="Times,serif" font-size="14.00">2</text>
</g>
<!-- 2&#45;&gt;4 -->
<g id="edge6" class="edge">
<title>2&#45;&gt;4</title>
<path fill="none" stroke="black" d="M116.23,-92.48C133.55,-83.61 162.93,-71 190,-71 190,-71 190,-71 365,-71 388.22,-71 412.84,-81 430.29,-89.99"/>
<polygon fill="black" stroke="black" points="428.73,-93.12 439.19,-94.81 432.06,-86.97 428.73,-93.12"/>
<text text-anchor="middle" x="273" y="-74.8" font-family="Times,serif" font-size="14.00">12</text>
</g>
<!-- 0 -->
<g id="node6" class="node">
<title>0</title>
<ellipse fill="none" stroke="black" cx="191" cy="-126" rx="18" ry="18"/>
<text text-anchor="middle" x="191" y="-122.3" font-family="Times,serif" font-size="14.00">0</text>
</g>
<!-- 2&#45;&gt;0 -->
<g id="edge7" class="edge">
<title>2&#45;&gt;0</title>
<path fill="none" stroke="black" d="M115.42,-110.47C121.53,-114.03 128.88,-117.76 136,-120 144.45,-122.65 153.96,-124.16 162.62,-125.02"/>
<polygon fill="black" stroke="black" points="162.39,-128.51 172.63,-125.76 162.92,-121.53 162.39,-128.51"/>
<text text-anchor="middle" x="145.5" y="-127.8" font-family="Times,serif" font-size="14.00">8</text>
</g>
<!-- 0&#45;&gt;1 -->
<g id="edge8" class="edge">
<title>0&#45;&gt;1</title>
<path fill="none" stroke="black" d="M207.81,-132.91C218.98,-137.8 234.19,-144.46 247.01,-150.06"/>
<polygon fill="black" stroke="black" points="245.66,-153.3 256.23,-154.1 248.47,-146.88 245.66,-153.3"/>
<text text-anchor="middle" x="232" y="-148.8" font-family="Times,serif" font-size="14.00">7</text>
</g>
<!-- 0&#45;&gt;3 -->
<g id="edge9" class="edge">
<title>0&#45;&gt;3</title>
<path fill="none" stroke="black" d="M180.02,-111.68C167.65,-95.32 144.89,-69.48 118,-59 93.99,-49.64 64.66,-56.45 44.18,-63.86"/>
<polygon fill="black" stroke="black" points="42.66,-60.7 34.62,-67.6 45.21,-67.22 42.66,-60.7"/>
<text text-anchor="middle" x="100" y="-62.8" font-family="Times,serif" font-size="14.00">10</text>
</g>
<!-- 0&#45;&gt;2 -->
<g id="edge10" class="edge">
<title>0&#45;&gt;2</title>
<path fill="none" stroke="black" d="M177.45,-114.12C171.21,-109.02 163.25,-103.64 155,-101 146.49,-98.27 136.84,-97.58 128.07,-97.78"/>
<polygon fill="black" stroke="black" points="127.72,-94.29 117.95,-98.39 128.14,-101.28 127.72,-94.29"/>
<text text-anchor="middle" x="145.5" y="-104.8" font-family="Times,serif" font-size="14.00">0</text>
</g>
</g>
</svg>
